<svg viewBox="0 0 329.9999694824219 199.99998474121094" xmlns="http://www.w3.org/2000/svg"><g><g><g><g><g><line x1="53.1875" y1="176" x2="48.1875" y2="176" style="visibility: inherit;" fill="rgb(0, 0, 0)" stroke="rgb(204, 204, 204)" stroke-width="1px"></line><line x1="53.1875" y1="161.33333333333337" x2="48.1875" y2="161.33333333333337" style="visibility: inherit;" fill="rgb(0, 0, 0)" stroke="rgb(204, 204, 204)" stroke-width="1px"></line><line x1="53.1875" y1="146.66666666666674" x2="48.1875" y2="146.66666666666674" style="visibility: inherit;" fill="rgb(0, 0, 0)" stroke="rgb(204, 204, 204)" stroke-width="1px"></line><line x1="53.1875" y1="132" x2="48.1875" y2="132" style="visibility: inherit;" fill="rgb(0, 0, 0)" stroke="rgb(204, 204, 204)" stroke-width="1px"></line><line x1="53.1875" y1="117.33333333333339" x2="48.1875" y2="117.33333333333339" style="visibility: inherit;" fill="rgb(0, 0, 0)" stroke="rgb(204, 204, 204)" stroke-width="1px"></line><line x1="53.1875" y1="102.66666666666661" x2="48.1875" y2="102.66666666666661" style="visibility: inherit;" fill="rgb(0, 0, 0)" stroke="rgb(204, 204, 204)" stroke-width="1px"></line><line x1="53.1875" y1="88" x2="48.1875" y2="88" style="visibility: inherit;" fill="rgb(0, 0, 0)" stroke="rgb(204, 204, 204)" stroke-width="1px"></line><line x1="53.1875" y1="73.33333333333339" x2="48.1875" y2="73.33333333333339" style="visibility: inherit;" fill="rgb(0, 0, 0)" stroke="rgb(204, 204, 204)" stroke-width="1px"></line><line x1="53.1875" y1="58.666666666666615" x2="48.1875" y2="58.666666666666615" style="visibility: inherit;" fill="rgb(0, 0, 0)" stroke="rgb(204, 204, 204)" stroke-width="1px"></line><line x1="53.1875" y1="44" x2="48.1875" y2="44" style="visibility: inherit;" fill="rgb(0, 0, 0)" stroke="rgb(204, 204, 204)" stroke-width="1px"></line><line x1="53.1875" y1="29.33333333333325" x2="48.1875" y2="29.33333333333325" style="visibility: inherit;" fill="rgb(0, 0, 0)" stroke="rgb(204, 204, 204)" stroke-width="1px"></line><line x1="53.1875" y1="14.666666666666615" x2="48.1875" y2="14.666666666666615" style="visibility: inherit;" fill="rgb(0, 0, 0)" stroke="rgb(204, 204, 204)" stroke-width="1px"></line><line x1="53.1875" y1="0" x2="48.1875" y2="0" style="visibility: inherit;" fill="rgb(0, 0, 0)" stroke="rgb(204, 204, 204)" stroke-width="1px"></line></g><g transform="translate(43.1875, 0)"><text x="0" y="176" dx="0em" dy="0.3em" style="text-anchor: end; visibility: hidden; font-family: Roboto, sans-serif; font-size: 12px; font-weight: 200;" fill="rgb(33, 33, 33)" stroke="none" stroke-width="1px">2.2</text><text x="0" y="161.33333333333337" dx="0em" dy="0.3em" style="text-anchor: end; visibility: inherit; font-family: Roboto, sans-serif; font-size: 12px; font-weight: 200;" fill="rgb(33, 33, 33)" stroke="none" stroke-width="1px">2.25</text><text x="0" y="146.66666666666674" dx="0em" dy="0.3em" style="text-anchor: end; visibility: hidden; font-family: Roboto, sans-serif; font-size: 12px; font-weight: 200;" fill="rgb(33, 33, 33)" stroke="none" stroke-width="1px">2.3</text><text x="0" y="132" dx="0em" dy="0.3em" style="text-anchor: end; visibility: inherit; font-family: Roboto, sans-serif; font-size: 12px; font-weight: 200;" fill="rgb(33, 33, 33)" stroke="none" stroke-width="1px">2.35</text><text x="0" y="117.33333333333339" dx="0em" dy="0.3em" style="text-anchor: end; visibility: hidden; font-family: Roboto, sans-serif; font-size: 12px; font-weight: 200;" fill="rgb(33, 33, 33)" stroke="none" stroke-width="1px">2.4</text><text x="0" y="102.66666666666661" dx="0em" dy="0.3em" style="text-anchor: end; visibility: inherit; font-family: Roboto, sans-serif; font-size: 12px; font-weight: 200;" fill="rgb(33, 33, 33)" stroke="none" stroke-width="1px">2.45</text><text x="0" y="88" dx="0em" dy="0.3em" style="text-anchor: end; visibility: hidden; font-family: Roboto, sans-serif; font-size: 12px; font-weight: 200;" fill="rgb(33, 33, 33)" stroke="none" stroke-width="1px">2.5</text><text x="0" y="73.33333333333339" dx="0em" dy="0.3em" style="text-anchor: end; visibility: inherit; font-family: Roboto, sans-serif; font-size: 12px; font-weight: 200;" fill="rgb(33, 33, 33)" stroke="none" stroke-width="1px">2.55</text><text x="0" y="58.666666666666615" dx="0em" dy="0.3em" style="text-anchor: end; visibility: hidden; font-family: Roboto, sans-serif; font-size: 12px; font-weight: 200;" fill="rgb(33, 33, 33)" stroke="none" stroke-width="1px">2.6</text><text x="0" y="44" dx="0em" dy="0.3em" style="text-anchor: end; visibility: inherit; font-family: Roboto, sans-serif; font-size: 12px; font-weight: 200;" fill="rgb(33, 33, 33)" stroke="none" stroke-width="1px">2.65</text><text x="0" y="29.33333333333325" dx="0em" dy="0.3em" style="text-anchor: end; visibility: hidden; font-family: Roboto, sans-serif; font-size: 12px; font-weight: 200;" fill="rgb(33, 33, 33)" stroke="none" stroke-width="1px">2.7</text><text x="0" y="14.666666666666615" dx="0em" dy="0.3em" style="text-anchor: end; visibility: inherit; font-family: Roboto, sans-serif; font-size: 12px; font-weight: 200;" fill="rgb(33, 33, 33)" stroke="none" stroke-width="1px">2.75</text><text x="0" y="0" dx="0em" dy="0.3em" style="text-anchor: end; visibility: hidden; font-family: Roboto, sans-serif; font-size: 12px; font-weight: 200;" fill="rgb(33, 33, 33)" stroke="none" stroke-width="1px">2.8</text></g><line x1="53.1875" y1="0" x2="53.1875" y2="176" fill="rgb(0, 0, 0)" stroke="rgb(204, 204, 204)" stroke-width="1px"></line></g></g><g transform="translate(53, 0)" clip-path="url(#clip_0)"><clipPath id="clip_0"><rect width="276" height="175"></rect></clipPath><g><g><g><line x1="0" y1="0" x2="0" y2="176" fill="rgb(0, 0, 0)" stroke="rgb(66, 66, 66)" stroke-width="1px" opacity="0.25"></line><line x1="18.454166666666666" y1="0" x2="18.454166666666666" y2="176" fill="rgb(0, 0, 0)" stroke="rgb(66, 66, 66)" stroke-width="1px" opacity="0.25"></line><line x1="36.90833333333333" y1="0" x2="36.90833333333333" y2="176" fill="rgb(0, 0, 0)" stroke="rgb(66, 66, 66)" stroke-width="1px" opacity="0.25"></line><line x1="55.362500000000004" y1="0" x2="55.362500000000004" y2="176" fill="rgb(0, 0, 0)" stroke="rgb(66, 66, 66)" stroke-width="1px" opacity="0.25"></line><line x1="73.81666666666666" y1="0" x2="73.81666666666666" y2="176" fill="rgb(0, 0, 0)" stroke="rgb(66, 66, 66)" stroke-width="1px" opacity="0.25"></line><line x1="92.27083333333333" y1="0" x2="92.27083333333333" y2="176" fill="rgb(0, 0, 0)" stroke="rgb(66, 66, 66)" stroke-width="1px" opacity="0.25"></line><line x1="110.72500000000001" y1="0" x2="110.72500000000001" y2="176" fill="rgb(0, 0, 0)" stroke="rgb(66, 66, 66)" stroke-width="1px" opacity="0.25"></line><line x1="129.17916666666667" y1="0" x2="129.17916666666667" y2="176" fill="rgb(0, 0, 0)" stroke="rgb(66, 66, 66)" stroke-width="1px" opacity="0.25"></line><line x1="147.63333333333333" y1="0" x2="147.63333333333333" y2="176" fill="rgb(0, 0, 0)" stroke="rgb(66, 66, 66)" stroke-width="1px" opacity="0.25"></line><line x1="166.0875" y1="0" x2="166.0875" y2="176" fill="rgb(0, 0, 0)" stroke="rgb(66, 66, 66)" stroke-width="1px" opacity="0.25"></line><line x1="184.54166666666666" y1="0" x2="184.54166666666666" y2="176" fill="rgb(0, 0, 0)" stroke="rgb(66, 66, 66)" stroke-width="1px" opacity="0.25"></line><line x1="202.9958333333333" y1="0" x2="202.9958333333333" y2="176" fill="rgb(0, 0, 0)" stroke="rgb(66, 66, 66)" stroke-width="1px" opacity="0.25"></line><line x1="221.45000000000002" y1="0" x2="221.45000000000002" y2="176" fill="rgb(0, 0, 0)" stroke="rgb(66, 66, 66)" stroke-width="1px" opacity="0.25"></line><line x1="239.90416666666667" y1="0" x2="239.90416666666667" y2="176" fill="rgb(0, 0, 0)" stroke="rgb(66, 66, 66)" stroke-width="1px" opacity="0.25"></line><line x1="258.35833333333335" y1="0" x2="258.35833333333335" y2="176" fill="rgb(0, 0, 0)" stroke="rgb(66, 66, 66)" stroke-width="1px" opacity="0.25"></line><line x1="276.8125" y1="0" x2="276.8125" y2="176" fill="rgb(0, 0, 0)" stroke="rgb(66, 66, 66)" stroke-width="1px" opacity="0.25"></line></g><g><line x1="0" y1="176" x2="276.8125" y2="176" fill="rgb(0, 0, 0)" stroke="rgb(66, 66, 66)" stroke-width="1px" opacity="0.25"></line><line x1="0" y1="161.33333333333337" x2="276.8125" y2="161.33333333333337" fill="rgb(0, 0, 0)" stroke="rgb(66, 66, 66)" stroke-width="1px" opacity="0.25"></line><line x1="0" y1="146.66666666666674" x2="276.8125" y2="146.66666666666674" fill="rgb(0, 0, 0)" stroke="rgb(66, 66, 66)" stroke-width="1px" opacity="0.25"></line><line x1="0" y1="132" x2="276.8125" y2="132" fill="rgb(0, 0, 0)" stroke="rgb(66, 66, 66)" stroke-width="1px" opacity="0.25"></line><line x1="0" y1="117.33333333333339" x2="276.8125" y2="117.33333333333339" fill="rgb(0, 0, 0)" stroke="rgb(66, 66, 66)" stroke-width="1px" opacity="0.25"></line><line x1="0" y1="102.66666666666661" x2="276.8125" y2="102.66666666666661" fill="rgb(0, 0, 0)" stroke="rgb(66, 66, 66)" stroke-width="1px" opacity="0.25"></line><line x1="0" y1="88" x2="276.8125" y2="88" fill="rgb(0, 0, 0)" stroke="rgb(66, 66, 66)" stroke-width="1px" opacity="0.25"></line><line x1="0" y1="73.33333333333339" x2="276.8125" y2="73.33333333333339" fill="rgb(0, 0, 0)" stroke="rgb(66, 66, 66)" stroke-width="1px" opacity="0.25"></line><line x1="0" y1="58.666666666666615" x2="276.8125" y2="58.666666666666615" fill="rgb(0, 0, 0)" stroke="rgb(66, 66, 66)" stroke-width="1px" opacity="0.25"></line><line x1="0" y1="44" x2="276.8125" y2="44" fill="rgb(0, 0, 0)" stroke="rgb(66, 66, 66)" stroke-width="1px" opacity="0.25"></line><line x1="0" y1="29.33333333333325" x2="276.8125" y2="29.33333333333325" fill="rgb(0, 0, 0)" stroke="rgb(66, 66, 66)" stroke-width="1px" opacity="0.25"></line><line x1="0" y1="14.666666666666615" x2="276.8125" y2="14.666666666666615" fill="rgb(0, 0, 0)" stroke="rgb(66, 66, 66)" stroke-width="1px" opacity="0.25"></line><line x1="0" y1="0" x2="276.8125" y2="0" fill="rgb(0, 0, 0)" stroke="rgb(66, 66, 66)" stroke-width="1px" opacity="0.25"></line></g></g></g><g><g><line x1="0" y1="821.3333333333338" x2="276.8125" y2="821.3333333333338" fill="rgb(0, 0, 0)" stroke="rgb(153, 153, 153)" stroke-width="1.5px"></line></g></g><g><g><line x1="18.454166666666666" y1="0" x2="18.454166666666666" y2="176" fill="rgb(0, 0, 0)" stroke="rgb(153, 153, 153)" stroke-width="1.5px"></line></g></g><g><g><g><g><g><path stroke="rgb(255, 112, 67)" stroke-width="2px" d="M26.372849583333334,-8.835253442811677L26.586917916666668,1.42290341823184L26.63489875,1.944443344974859L26.724401458333332,13.626629997457005L27.3380025,15.61780183079242L27.638805416666667,16.193989916042568L27.773520833333333,-2.650655713069707L28.0023525,2.9325486702151338L28.14260416666667,6.249209683112795L28.570740833333335,16.86409184995816L28.591963125000003,5.983333955158011L29.087457500000003,9.821062181369733L29.196337083333333,20.806128112869928L29.665995625,34.46561097010696L29.773029791666666,36.56217196129672L29.845001041666666,36.96887411997476L29.854228125,31.918423674458026L29.9732575,39.07644686418058L30.302664375,48.56236693849582L30.56748166666667,46.85101320102071L30.68743375,43.88783773832057L31.790070208333336,48.670136012946855L31.88326375,65.96204864878382L32.33815895833333,62.37224058249947L32.36399479166667,68.64364362521592L32.49686479166667,68.77615759033127L32.50147833333333,67.5218163803707L32.590981041666666,75.28012931796849L33.117847499999996,67.31438954146459L33.18243708333333,62.86406503998294L33.225804375,72.60400624404184L33.639177708333335,81.29535001514259L33.879081875,77.53189750908564L34.09591833333333,77.30121807495007L34.108836249999996,68.26444666528243L34.28507354166667,72.86775409942987L34.525900416666666,76.91155567824516L34.831316875,80.82221671179735L34.886679375,78.67994552593903L35.34249729166667,87.70845356230818L35.40339604166667,86.16573986199437L35.44953145833333,82.54910974971621L35.457835833333334,86.4554612315029L36.036373958333336,87.04983415263874L36.3953075,80.83665911788532L36.51341416666667,84.75520541132362L36.897260833333334,85.01348091280974L37.12424708333334,89.14199255973008L37.246967291666664,87.24409191848771L37.42320458333333,85.13102953260294L37.545924791666664,95.33232357079874L37.85134125,87.62547090436075L37.881790625,84.19494501820239L38.09585895833333,88.67151616456728L38.377285,90.42658116683943L38.55075416666667,97.33229401667262L38.972431875,101.78086699024446L39.04901666666667,97.7487600623107L40.11659020833333,91.56973028055043L40.16549375,92.70796213073255L40.17010729166667,109.93202367736535L40.47091020833333,103.52067711738934L40.684978541666666,103.72364589445708L41.04944833333333,101.14096955978616L41.13802833333333,106.00428184980393L41.17770479166667,97.807490069355L41.34840583333333,93.68341371934736L41.541251875,91.07681662353558L42.10779479166667,93.5149106731773L42.169616250000004,101.14859433278009L42.397525208333334,107.54940948866546L42.44181520833334,109.80033457666283L43.401431875,115.7296351535498L43.471557708333336,110.51174349447362L44.20326541666667,113.73562784310342L44.28630916666667,116.72546229749628L44.666465,113.5601369976384L45.04477541666667,110.35839563445543L45.23669875,126.32356856963818L45.52458375,124.76562551678289L45.67867604166667,127.70207550538225L45.69436208333333,117.23575539437523L45.854913333333336,111.95800800550535L45.999778541666664,107.7597179299309L46.251677916666665,114.8000319094885L46.35686666666667,120.66894991148091L46.44175583333333,115.10806092589246L46.57185770833333,126.59381604772297L47.05443416666667,120.8999292567262L47.26757979166667,124.95540402620368L47.6449675,125.18542147252569L47.76122875,124.2125386908071L47.766765,114.90822288082545L47.830431875,125.49746516160074L47.85165416666667,114.9379118769084L47.868262916666666,121.46015872689384L48.094326458333335,119.23054215589539L48.19213354166667,121.2977379318836L48.9293775,123.09829963982678L48.98012645833334,122.56101428910438L48.98843083333334,117.51526966558502L49.24955729166667,123.03345684329643L49.29107916666667,116.18340672723443L49.303074374999994,121.01708698474559L49.66662145833333,124.11188538990339L49.71367958333333,110.7026333498275L49.761660416666665,124.30228221936923L49.78288270833333,124.64343750789112L49.86131291666666,122.1611571092268L50.00710083333333,111.15258822712472L50.23500979166667,111.05556203051323L50.363266249999995,117.80238222156315L51.04883854166667,124.37522409205243L51.358868541666666,127.32572446174188L51.473284375,120.07225149019618L51.527724166666665,120.3321468739354L51.53510583333333,118.1470705136841L51.555405416666666,126.46052115749436L52.023218541666665,132.9561064973937L52.34893458333333,124.43098506542844L52.75584895833333,119.01499108401624L52.86934208333333,120.99516154087195L53.126777708333336,133.8846950893995L53.193212708333334,125.35575042359409L53.706238541666664,124.62880517359011L53.848335625000004,127.64516030141964L54.108539375,129.72677310142475L54.800570625,134.12118755877148L54.846706041666664,130.44464704454026L54.908527500000005,135.05643106933485L56.67920479166667,142.14863067529234L56.979085,128.62062270042279L57.05105625,132.70311041631496L57.10734145833334,129.90932454243216L57.47181125,133.5509953195348L57.66465729166667,131.365046451161L57.755082708333326,133.3402787862239L57.804908958333336,131.1516160022031L58.28656270833333,132.29398728117212L58.337311666666665,131.0376477601421L58.42312354166667,133.18789932503068L58.482176875,130.06810255074762L58.76268020833333,131.42125856414006L58.912158958333336,137.88049358249447L59.22772520833333,144.11011225057095L59.237874999999995,139.73364344083734L59.243411249999994,144.89307862228242L59.41226687499999,143.6741009575491L60.058162708333334,141.47025138670395L60.16058333333333,133.19159195344167L60.27684458333333,133.6348500898711L60.32298,137.475239887907L60.70405854166667,127.1915322790984L61.93771958333333,127.96171196999813L62.59837875,123.74912190856136L62.623291875,136.0697886968946L62.75708458333333,132.1179352298555L62.805065416666665,129.57743787538075L62.85673708333333,129.30356925192112L63.0135975,138.9493549910941L63.18522125,133.29371120022284L63.348540625,135.30014843237328L63.68348374999999,136.24214197690446L64.616341875,137.75897282855811L64.85809145833333,137.15249266523384L65.41817541666667,135.07897423683562L65.51690520833333,135.2248854576287L65.64700708333334,145.27835677099648L65.80571291666666,147.07477264820983L66.410086875,152.2542075627215L66.64353208333334,146.1341895766954L66.80223791666667,142.52903771248867L67.73970958333334,130.50470239230447L67.76739083333334,140.57156736637225L67.80245375,147.54583704661377L67.95746875,140.62009561175734L68.22782229166667,132.5880078878877L68.538775,142.17156693976392L68.63750479166666,130.79113036975025L68.7048625,139.69054990560664L68.99643833333333,147.39683981071428L69.00935625,142.64472620088168L69.40243,146.73542886017742L69.70600104166667,141.61269184572882L69.80565354166667,142.48165624513263L70.18673208333334,140.0373798758231L70.27808020833334,136.91422327461498L70.40910479166666,134.70416038892276L70.44878125,139.9090929130412L70.966420625,145.01538474359293L71.07622291666667,145.01623768209328L71.265378125,142.5186873114044L71.45176520833333,143.18104321773464L71.5837125,142.4497997384207L71.72950041666667,160.13083005871002L72.31634291666667,155.80151337539536L72.339410625,154.08685284945597L72.52026145833334,157.07096292630777L73.25381458333334,155.78460351262063L74.28447979166667,142.8346160707885L74.68308979166667,148.80032866346917L74.70984833333333,153.59421086995647L74.86855416666667,143.29891187760546L74.94144812500001,153.5969750969408L75.11122645833333,152.49736555946657L75.38803895833333,155.2797995440133L75.47661895833333,155.95185901514498L75.68791916666666,145.09739409561035L75.86231104166667,149.34648475651986L75.92505520833333,147.3345098114315L76.1455825,149.21561982728858L76.30982458333334,149.35315119324812L76.47037583333334,145.36379348694504L77.0313825,142.78302981531152L77.04706854166668,141.21532519306058L77.26298229166667,138.74693396674783L77.32849458333334,148.49408679199536L77.56932145833333,152.06330032145362L77.69665520833334,155.79716191487736L77.87842875,145.06080447314514L78.02975291666667,137.75415999101597L78.08972895833332,138.53498348240257L78.141400625,142.72922627515115L78.60183208333333,143.2802593572131L79.10101729166666,140.83631764232274L79.62419291666667,150.13619813747692L79.99143083333334,155.88044833398357L80.39742249999999,149.89356746230425L80.66685333333334,154.6794220325584L81.33304875,149.36001680596087L81.46591875,149.21171371720285L81.52312666666667,145.43435702670848L81.72150895833333,140.2251151518975L81.75380375,133.92665234309166L82.19578104166668,145.28879983684465L82.46705729166666,144.02958585099998L82.81584104166666,152.43932540382923L82.91180270833333,157.54355180561137L83.661041875,155.18491963724048L83.843738125,156.67525028494842L84.40659020833333,153.718682173736L84.50624270833333,153.6696177108172L85.07739916666667,162.45235351223263L85.18166520833334,156.21213272908435L85.19735125,165.5345845284011L85.34775270833333,151.1049817757972L85.46585937500001,151.86476162814114L85.50553583333334,153.0027304713509L85.809106875,147.57936146803198L86.09053291666666,154.31009144950414L86.855458125,152.42659086009968L86.95972416666667,160.52867332709496L87.16456541666666,149.87761659391325L87.4838225,158.63950940947305L87.94148583333333,153.82486521192737L88.10849604166667,153.52265197627747L88.627058125,150.5880789990803L88.76177354166666,148.25234843704592L88.93893354166667,145.18145107476002L88.99152791666666,144.76868662385996L89.14654291666666,152.8547554720373L89.45934104166666,156.99327218784478L89.96590791666667,161.05293810518725L90.15414041666666,149.9620856373636L90.160599375,143.1265515126265L90.48908354166667,147.360385253279L90.802804375,149.36433143272913L90.97350541666665,148.93850242409067L91.03440416666666,151.73336665220828L91.44408666666666,153.80285059842132L91.45331375,154.28847559749684L91.52713041666667,148.4521879382507L91.79471583333333,157.49908070728628L91.83254687499999,159.94774198312825L92.04661520833334,147.96648912298247L92.19055770833334,143.42157438199263L92.30866437499999,141.30852476835574L92.47659729166668,147.5788292571723L92.72203770833333,147.73362313617181L92.88812520833334,146.25173394029673L92.98777770833334,151.17641776489415L93.41130083333333,142.13304385555108L93.51648958333332,140.216973326677L93.75639375,144.80349128767295L94.33400916666668,149.4247385103968L95.34068395833334,146.08761593338656L95.48462645833332,142.79890948516208L95.724530625,158.51040343035507L95.75959354166666,159.62421742035494L96.012415625,159.38521058730413L96.39349416666667,152.97455134017545L96.40456666666667,152.59309872402716L96.82716708333334,146.57656591980037L97.06891666666667,151.8557224701745L97.37341041666667,154.54244756088087L97.49982145833333,146.36157998672388L97.59024687499999,152.37551427621403L98.00269750000001,147.22874026738853L98.25090604166667,139.1731414789554L98.38469875,139.75138295459328L98.567395,144.15618916810104L98.61629854166667,155.3581345824036L99.06104395833333,157.32059669182493L99.16346458333334,156.1325827261953L99.455963125,156.087272617488L99.62020520833333,162.8864389896009L99.79182895833334,162.0841461086042L99.83704166666668,156.32404825272758L99.91085833333334,155.10054620017172L100.03265583333334,151.6530075703634L100.22919270833333,148.20011295286253L100.38789854166667,148.68968853994664L100.56967208333333,152.6622414686945L100.67762895833333,147.81969392093026L100.72284166666667,150.28665786460238L101.52375249999999,153.29572366163254L101.92605333333333,162.0005568572985L102.412320625,158.44943944071377L102.41601145833333,156.27073686592567L103.11911520833333,145.91115224325333L103.27874374999999,151.88260900952625L103.36271020833333,149.1180531579944L103.77239270833334,154.88785002223818L103.98646104166667,150.65303472037422L104.0925725,150.14823766165162L104.19960666666667,149.640754323879L104.42567020833333,152.48067604403457L104.63051145833333,146.80435462137524L104.787371875,149.2262544354229L104.981140625,149.40238881034225L105.03096687499999,152.17241167976005L105.033735,142.69368596049273L105.05680270833334,145.38451754553395L105.10570625,142.27992317380472L105.45356729166667,141.49057404181542L106.08839062499999,149.6993655839434L106.19265666666666,148.88660594297676L106.26739604166667,144.7003646481428L106.54236312500001,146.92455381085836L106.95296833333333,140.53160199680158L107.03878020833334,145.18520824804838L107.35250104166666,142.59687883473404L107.61547291666666,152.60647528261134L107.688366875,158.4718014293325L107.87106312499999,163.47711161931832L108.43945145833334,165.97082711156503L109.06043416666667,162.29343427556535L109.23943958333334,151.53515429499416L109.775533125,143.31670516651485L109.89548520833333,149.25323263360036L110.08925395833334,152.2640525155443L110.4703325,152.24112753390347L110.94275916666668,157.432969468747L110.97136312500001,162.98573993320144L111.23618041666667,161.84649817948463L111.42810375,156.93187402569214L111.43548541666667,157.53400793999216L111.54067416666668,155.4156053662088L111.57758249999999,149.90257468619671L111.58404145833333,152.49560212372975L111.77135125,152.15147809552698L111.873771875,157.43339428326016L111.97526979166668,153.84861740084807L112.09337645833332,156.00942475365986L112.43293312499999,159.30029138784053L112.58425729166667,154.91409359491135L112.68021895833333,161.38749780326845L113.28920645833333,143.63224284293113L113.62138145833333,150.69175415302436L113.64998541666667,158.28998942215316L114.23405979166667,162.54697440687266L114.61698374999999,161.31132724259362L114.82367041666666,149.00037921095335L114.97222645833334,151.25193040743142L115.16599520833333,144.30077270572187L115.86448541666665,151.89352870725475L116.30369458333332,145.93677691266666L116.33968020833333,159.60776927259997L116.63402416666666,151.6079288771993L116.74198104166666,164.18866021938604L116.814875,155.26529726688548L116.84532437499999,153.07563699864048L117.25223875,163.5220184499981L117.38141791666668,158.25844473292213L117.68222083333333,156.329441738028L117.68960249999999,144.42694309864353L117.70713395833333,150.49626443096352L117.72374270833333,153.5780326047044L117.84000395833333,156.34887949934608L117.90090270833333,156.11133524762204L117.98394645833334,153.65862294626206L118.41116041666668,151.1735652879396L119.13456375,152.22350562784194L119.41783520833334,159.4288075596478L119.48519291666668,157.92337289434994L119.75277833333334,149.53627623905143L119.86719416666666,154.0321986861392L119.92717020833332,154.80813146754295L121.207889375,146.39317508413907L121.55205958333335,150.97289388104986L121.62126270833333,145.52421230112347L121.78181395833334,145.51984506866233L121.82056770833333,141.78985351336544L122.00418666666667,146.3093938788526L122.47199979166666,153.29883060221397L122.52643958333333,149.29639939485705L122.78110708333334,139.7747726203127L122.98133479166667,154.73589170939465L123.00993875,157.29449777384642L123.13819520833333,153.62926773575964L123.31166437499999,153.2697852711759L123.71396520833333,159.95900047585653L123.80900416666667,161.23690846422488L124.36632,153.84669626668605L124.374624375,143.36180804321467L124.57762020833334,141.76949113696392L124.82398333333335,148.21297845496488L124.82767416666667,147.50315074078486L124.89041833333333,148.28105049899565L125.00022062500001,150.6054614558101L125.21336625,150.92972177908504L125.98105958333333,150.22624228782865L127.02925624999999,158.27464918129087L127.51552354166667,153.32634448110528L127.73236,150.28412455975686L128.02578125,153.63935240105602L128.33673395833333,157.0880258083094L128.40962791666666,157.28839694657418L128.41424145833332,162.31228835105006L129.00385208333333,161.63430395952327L129.127495,164.6000566595681L129.50396,160.26373476071478L130.071425625,157.61035674184558L130.29748916666668,162.0786580962142L130.36853770833335,172.95948072605535L130.403600625,156.05165431698086L131.01351083333333,159.23118739406223L131.433343125,155.70526262768078L131.47855583333333,152.62330253510453L131.51361875,151.22448709560695L131.74798666666666,146.24598681302828L132.446476875,156.7440805318275L132.47508083333335,151.38111730509917L132.537825,153.3344997491076L132.54243854166666,151.9433705444516L132.66423604166667,152.44838927003025L132.87645895833333,153.0241793343163L132.98995208333332,142.26824600390998L133.227088125,151.85680026347893L133.62293,147.32873622498187L133.69859208333332,139.7266082917925L133.72904145833334,143.39826711944394L133.733655,140.94396464585262L134.14149208333333,146.09461314216654L134.27067125,155.14493011674523L134.3647875,145.4575055553987L134.73756166666666,151.22031733877301L134.76524291666666,152.32736760866746L134.83721416666668,151.1137011438138L135.48956895833334,159.20248734888588L135.66765166666667,163.70554697476123L136.20559062499999,167.76971032597004L136.38920958333333,150.44235954112244L136.825650625,157.18793464557194L136.91515333333334,152.04729651325465L137.56381729166665,149.0612158392679L137.76496770833333,151.0436839509892L138.31213375,154.81330397817814L138.31951541666666,153.92948934491463L138.49575270833333,152.8749874098459L138.57879645833333,161.1900248962656L138.69321229166667,165.83817875611865L138.71628,163.30901687281184L138.868526875,164.07065385741112L138.90543520833336,153.48875156737643L138.98571083333331,160.87607056119413L139.06137291666667,151.1187596055966L139.08536333333333,148.85237555502465L140.39837729166666,146.2481298414783L141.1153216666667,150.7526244462281L141.310013125,158.20776007219658L141.33953979166668,155.73349952883237L141.4004385416667,146.19017651987105L141.40874291666665,153.1094718176843L141.487173125,154.96196910135285L142.00296708333332,158.67192989424274L142.05279333333334,149.9477288593972L142.134914375,149.41825838904333L142.1995039583333,148.21163211675935L142.39419541666666,159.9679801448928L142.395118125,156.4223550628472L142.6728533333333,160.89633397683588L142.937670625,155.12835417841916L143.31229020833334,163.44771766655674L143.40732916666667,164.4642787932934L144.46383020833335,163.86988756813102L144.64468104166667,152.5826294606378L144.65298541666667,157.68184645486582L144.89658041666667,164.60601847676062L145.49726354166665,165.55786716922694L145.50925875000001,167.48268783083304L145.650433125,159.84565924797909L145.89218270833334,156.9805416059164L146.20405812500002,150.18567552914234L146.29171541666668,145.8646228874724L146.38214083333335,159.25756920367488L146.62112229166667,159.58545379434034L146.88224875,155.7177772001068L147.37682041666667,162.0685783073688L147.62964250000002,153.80688235632874L147.770816875,150.66006325168783L148.04947479166665,149.07490707129264L148.172195,163.98305866334852L148.21463958333334,150.9681209239205L148.37888166666667,155.74086146629892L148.43424416666664,146.52645454253974L148.65200333333334,143.31465405690406L148.69813875,154.5093516178989L148.85130833333332,155.14978465644907L149.46860020833333,154.27818764771055L149.691895625,152.35331802482432L149.6955864583333,150.1469766750834L149.81553854166668,168.14238064616347L149.88474166666666,163.31038362858357L150.08220125,164.39600546604993L150.386695,152.8322805053786L150.48727020833334,158.22431438883916L150.63767166666668,167.60308686328395L150.68380708333333,168.63898834843917L150.73363333333333,159.10983343875108L150.82221333333334,163.6213087953471L151.23743208333335,161.9894972116158L151.49948125,153.76779805841485L151.76522125,158.45326052043308L152.039265625,157.3783838228393L152.10939145833333,164.70721014396403L152.49416083333332,157.701450109816L152.67501166666665,157.5259787084678L152.87154854166664,157.00298143080988L153.18434666666667,161.96773734481408L153.23878645833332,162.84985017056033L153.85054208333335,158.31101534729066L154.08860083333335,158.35178559997604L154.67267520833332,161.55733397391796L154.727115,162.25252884300963L154.88489812499998,155.77212633493988L154.97993708333334,152.58106398862677L155.08604854166666,150.97062071332587L155.30011687500001,156.47352945110745L156.030901875,151.79827731828817L156.17392166666664,155.46045442808236L156.78936812499998,158.73307044737675L156.85118958333334,155.4555155879248L157.26456291666668,159.05027468478622L157.87816395833332,156.3850908566074L157.91230416666667,156.81597425273398L158.51206458333334,154.2990755184373L159.19855958333335,150.3621250595975L159.42923666666667,151.497096304476L159.7438802083333,152.12344495716476L159.8749047916667,150.4668546533353L159.884131875,155.190625589039L160.53279583333332,158.2360112990614L161.373383125,159.28849042608402L161.749848125,154.4206772634629L161.75353895833334,151.21867833073404L162.032196875,152.72513196588827L162.44557020833335,153.85025404525564L163.02410833333332,151.84383671263515L163.22987229166665,153.6033753918389L163.24279020833333,151.76779966951085L164.09721812499998,151.95400611599686L164.17380291666666,144.51791656836122L164.89259270833332,146.712922283953L165.18970479166668,149.52893643515043L165.586469375,157.01652873120747L166.0099925,157.11768345373102L166.3209452083333,154.34621533753813L166.34032208333332,145.85714987716483L166.439051875,138.97228298863618L166.859806875,151.95979394682755L166.94377333333335,151.3346216887345L167.396823125,152.56597890516787L168.48100541666668,154.39235579606293L168.620334375,151.76660142522886L168.99772208333334,154.0886046539654L169.0438575,158.92336288596653L169.45723083333334,154.18145913782993L169.47199416666666,159.92732539317967L169.72389354166665,159.09187344635703L169.932425625,158.41293656781423L170.04407333333333,152.36693308326673L170.425151875,155.06214339081296L170.61799791666667,156.11245133803592L170.696428125,152.6457224507708L170.72503208333333,149.10362864054713L170.84959770833333,150.19604915291558L171.01937604166667,145.23865254269342L171.067356875,157.8782358778296L171.25466666666668,156.4574870792695L171.33678770833333,149.3146198110383L172.16537979166668,152.18300050397332L172.31393583333335,152.1708441052812L172.3499214583333,151.9530985041844L172.42927437499998,160.4077808350952L172.54369020833335,154.90568992439697L172.844493125,164.6761389709143L173.11300125000002,161.6275400720017L174.0052602083333,153.77436339866978L174.42601520833335,157.62728181687118L174.47768687500002,154.73517035965403L174.57918479166668,145.9790167462286L174.6806827083333,159.4718964368973L174.95472708333332,159.56388330484677L174.95564979166667,159.58824758544714L175.51757916666668,157.93041386295454L175.58955041666667,160.10482678863855L175.656908125,163.97579432757777L176.443055625,166.30584402818735L176.69403229166667,169.85905319018718L177.02805270833332,164.4008119596853L177.08618333333334,162.4474919772435L177.15446375,153.2635905029151L177.30855604166666,155.88877818277115L177.85018583333334,149.31991394335418L178.020886875,147.23710573499048L178.153756875,153.8058590220491L178.485931875,148.64498137595734L178.65017395833334,155.01881204741693L178.73598583333333,148.38819254257774L179.0312525,150.7743431378513L179.166890625,156.85457526340736L179.53043770833335,144.09329579687895L179.65869416666666,154.3593923951196L179.8460039583333,158.7801867269481L179.94381104166666,161.91701289473008L180.14496145833334,163.63752819175346L180.14865229166668,172.01626274431644L180.47713645833335,161.67204860117977L180.550953125,163.5264688050763L180.59616583333332,168.84211368457574L180.70135458333334,170.7540475076204L180.82130666666666,161.7687513398587L180.938490625,156.07189686104417L181.26974291666667,153.66304625871646L181.55485979166667,158.3171443649304L182.21367354166668,155.69735906768878L182.50894020833334,166.81287853468876L182.7294675,160.0555188688602L183.324614375,163.29499243296976L183.656789375,156.5571987068521L183.83579479166667,157.96346910610993L184.00372770833334,161.7200146505149L184.08584875,167.33129518760714L184.13659770833334,153.363110201757L184.398646875,151.70347962609978L184.43832333333333,155.3164074371183L184.52413520833332,157.22444936135952L184.55643,148.83776511649026L184.77972541666668,161.53067166348148L184.89414125,162.87636299971658L185.05284708333332,163.26762993361905L185.08606458333333,162.59694118038627L185.1875625,162.6572532498985L185.28260145833332,156.2228670663128L185.29644208333332,151.28421208142183L185.843608125,151.03479218212135L185.87036666666665,149.47981594241085L185.93311083333333,153.01633550864327L186.00508208333332,161.38765469874065L186.441523125,158.7338384450582L186.65282333333332,155.93755648500368L186.67312291666667,157.88930391053347L186.85397375,153.13265105156103L186.878886875,147.7394188169718L187.161235625,147.84830013458412L187.21106187499998,159.0581449163625L187.30979166666665,154.01366350011043L187.34300916666666,154.1472478844086L187.41498041666668,160.41517825945377L187.714860625,157.03310913259287L187.825585625,159.61730149436704L188.69846770833334,165.95511193503168L188.79166124999998,171.18905481157242L189.14136770833335,161.08614966347335L189.24009750000002,155.67864495758914L189.75496875,157.12422595567324L190.15265604166666,160.2352370707999L190.36303354166665,152.02729438277942L190.46360875,152.4818470072718L190.70535833333332,149.88971550416778L190.85114625,145.4287308324487L191.09381854166668,153.43267184907856L191.429684375,144.02510858226626L192.010990625,151.35500706423613L192.25274020833334,151.97681547714848L192.44005,157.09763968098315L193.173603125,167.94633100097272L193.494705625,172.0557858645811L193.49655104166666,167.2255832334296L193.92007416666667,169.86900370796138L193.93576020833333,169.3281028676805L193.954214375,166.12437636904588L194.58811500000002,162.76884172312018L194.68038583333333,155.78124471079275L194.68592208333334,162.9925256147243L195.15373520833333,157.07720583921218L195.16019416666668,153.94309881277212L195.17126666666664,156.66199728815158L195.29490958333332,158.4047306197985L195.41301625,156.20396406361084L195.45915166666666,157.20857228582275L195.48406479166667,151.47532088207305L195.49513729166665,158.6911444742308L195.77010437500002,160.25183980140048L195.91681499999999,162.00645361228567L196.20008645833332,163.5509567214079L196.27298041666668,155.42979939498667L196.69465812500002,161.52001088292297L196.7933879166667,162.51334828593863L196.87550895833334,155.19935215190176L197.06097333333335,157.20328336959167L197.20030229166667,151.33406566384485L197.47619208333333,143.7837951111975L197.68287875,143.6593004024933L198.42565895833334,152.13121663472515L198.781824375,150.92747316524256L199.00696520833333,152.73870486675622L199.79403541666667,159.74005316093917L200.08930208333334,159.24915579793074L200.359655625,160.9375580539538L200.91604875000002,159.35680871746348L201.012933125,163.11307357276326L201.10335854166667,142.46569163714744L201.300818125,148.79927277037447L201.32388583333335,153.33800278982886L201.364485,155.8094707819702L201.95225020833334,152.60411406911703L202.00484458333335,155.44220680410052L202.1690866666667,149.27081521201768L202.45881708333334,150.6247810990531L202.53355645833332,158.0015883249592L203.3510760416667,155.22511986509272L203.58452125,157.3226410922327L203.72385020833332,158.8048934525402L203.858565625,162.53160906550195L203.98036312500003,163.78069995671657L204.56812833333333,162.4905935376693L204.65117208333334,164.37620019812238L204.9704291666667,160.58526449143199L205.06639083333334,151.72023116393473L205.44008770833332,156.02674268192206L205.80363479166667,149.33079831504506L206.04907520833333,155.66800108375372L206.07675645833334,156.60845293296708L206.52427,151.0263744534651L206.59162770833333,153.5204857235114L206.65252645833334,156.5623448398685L206.693125625,159.4153254016425L207.008691875,160.75088540618736L207.09358104166668,152.73129092795722L207.36947083333334,148.7729506838903L207.81882979166664,162.28485856544484L207.95262250000002,160.3991672958424L208.80981854166666,153.07823837392473L208.92515708333335,159.1250451361713L209.56459395833332,161.79844525390337L209.59873416666667,159.85230425357906L209.78143041666667,160.217087813378L209.8570925,164.89950470218693L210.07300625,154.4373738214749L210.07761979166668,153.0373561369605L210.76596020833333,162.59077560030772L210.80840479166667,167.68867454801028L210.98556479166666,157.64004290426186L211.06030416666667,158.94338599239438L211.11289854166665,155.54656900998745L211.7772485416667,150.81940716526984L212.10573270833333,142.47734732243666L212.15555895833333,141.4868081737355L212.18324020833333,147.94442305935206L212.23029833333334,148.43836404068938L212.59753625000002,150.6029181233068L213.00629604166667,148.9830765575778L213.17146083333333,142.61252303822513L213.59590666666668,153.57463001352758L213.62727875,161.22446245635865L213.63373770833334,161.8588870685418L214.4853975,157.99990255362502L214.68470250000001,155.86693321104866L215.37027479166667,152.0372248476904L215.59357020833335,156.04097962296973L216.05676979166665,150.7246910249212L216.10751875,157.35915187488106L216.28098791666665,155.91144296819027L216.42677583333332,148.29599653856386L216.69620666666665,156.4028456241475L217.21845958333336,157.0539474664481L217.245218125,163.97009583582596L217.2572133333333,159.5594643211571L218.50471499999998,153.7726740354026L218.5508504166667,158.68512897771944L218.64681208333332,156.8876882061303L218.86272583333334,156.81361827442686L219.08509854166667,163.89454761260532L219.27240833333335,156.18237879542778L219.73468520833333,156.7036065578556L219.77436166666666,147.4382283878383L219.83618312500002,147.9960338548058L220.01703395833334,153.5105216190359L220.44424791666665,150.30676310569885L220.650011875,151.24276910609507L220.75150979166665,163.35488184126115L221.414014375,152.36717257399508L221.962103125,158.58717925647397L222.978005,164.18334443946384L223.32309791666665,165.936233470319L223.89794520833334,160.47523597249088L224.18121666666664,151.8720510683577L224.19782541666666,156.8338685601227L224.52723229166668,162.60152200277292L224.60658520833334,162.5395158017614L225.10577041666664,162.7684329917991L225.53944333333334,163.85492830500795L225.621564375,166.49197614804388L225.98695687499998,155.37853377232247L226.40309833333333,160.76104868950029L226.41140270833333,154.37176796695542L226.59317625,162.68724992812244L226.66883833333333,167.85680643880713L226.684524375,160.50071309505506L227.20031833333334,164.34673624733253L228.02521958333332,168.2046659956326L228.10734062499998,158.7017307700683L228.1710075,159.97083806327797L228.6129847916667,160.26540892520637L228.9193239583333,156.85705826202482L229.13985125,166.00437218459123L229.347460625,158.94932639506467L229.40743666666665,165.95089263065861L229.5458429166667,151.80778482562823L229.55968354166666,151.15563240253843L229.801433125,155.26145703755176L229.82542354166665,163.34577345348808L229.906621875,165.45047554670228L230.09946791666667,160.19320860682996L230.188970625,158.1362300347035L230.38366208333332,156.3902224161672L230.46393770833333,149.86874597818345L230.537754375,154.18367637922785L230.681696875,152.9410306159482L230.85701145833332,160.51666609906115L231.37003729166668,160.6472600964485L231.71513020833333,165.07723748690555L231.9135125,159.1932546218635L232.0463825,150.59867880664672L232.28720937499997,153.67014122360393L232.30012729166668,158.58050066840718L232.414543125,163.62880017724868L232.425615625,171.44364820937653L232.4671375,166.02317948552172L232.641529375,161.70591106859172L232.76978583333334,160.1386314800222L232.79377624999998,161.02155423387916L233.15916875000002,165.40241007939005L233.16378229166668,160.1992814358176L233.22560374999998,162.26881812906868L233.40091833333332,170.94351845719385L233.43690395833332,160.2041629338541L233.494111875,159.9898993919857L233.75708375,163.22479290667573L234.241505625,166.2677543654247L234.40759312499998,157.09411870405296L234.485100625,160.76186316986016L234.53584958333332,151.72542641428583L234.717623125,152.99052013079807L234.745304375,151.1632268734007L235.04610729166666,148.76363334897533L235.74644291666667,149.8772168746196L235.863626875,154.84666195257125L236.5086,154.20656131949195L237.54295604166666,150.5247333004843L238.39277041666668,148.3744108014168L238.53302208333332,155.84698890842176L238.85504729166666,159.2712274026702L239.273956875,158.82586205195375L239.43635354166665,157.06545080457727L239.56830083333332,163.12173508235574L240.05272270833333,165.9814247367507L240.79734833333333,166.95423722730436L240.81395708333335,155.6614853092016L240.945904375,152.47713766582694L241.12214166666666,155.04859491639075L241.17658145833332,151.60756983232147L241.31314229166665,148.61283240639165L241.35466416666668,136.12348506802124L241.366659375,151.52863968583233L241.89629395833333,144.49298235479375L242.19063791666665,154.73625114383333L242.39732458333333,157.1933899888716L242.74426291666666,164.57570857421493L242.87713291666665,168.24050215055107L243.060751875,158.91401818893092L243.18624020833332,161.27330511908778L243.68081187500002,157.4791681097014L244.29718104166665,152.9175652579107L244.533394375,154.89046530220736L244.82866104166666,155.0919106103608L244.91631833333332,156.719369592128L245.03350229166665,156.62738896719088L245.69877499999998,166.55381883767126L246.78018916666667,162.53113570364437L246.87246,159.51615914435456L247.10959604166666,152.5423350536701L247.152040625,151.47696760121252L247.19725333333332,155.1148162215347L247.57187291666665,161.69166754460707L247.71397,159.79716147647127L247.755491875,158.70723111032945L248.13933854166666,156.1154270247589L248.20854166666666,159.27879448389837L248.25283166666665,157.93284218106163L248.27220854166666,152.5576870794703L248.35248416666667,140.17051516109373L248.533335,147.88008060137633L248.59331104166665,147.27238836733625L249.006684375,148.59667429237436L249.26412,157.48338604515132L249.45327520833334,152.9345028591872L249.79190916666667,162.46774364666473L250.125006875,160.99422701889083L250.18129208333335,160.6597869437563L250.48670854166667,159.83120846996468L250.65464145833334,155.13898539692033L250.659255,151.47941072871208L250.695240625,151.35355118169346L250.81980625,147.036633781119L251.09292791666667,153.05354917736284L251.26362895833333,160.4223730366912L251.315300625,154.16397476602506L251.84401250000002,144.54756190225834L251.855085,151.02996231225347L252.256463125,147.00176695847847L252.41332354166667,157.61028360444902L252.52312583333335,159.0311619229234L253.56947708333334,156.52076878868232L253.582395,157.4789138082029L253.58700854166668,145.146642921966L254.64443229166667,152.2086146187396L254.84373729166666,158.56399476001326L254.90555875,165.05169183891817L254.93047187500002,158.42720498372202L254.93877625000002,164.8562095665678L255.50716458333335,163.68638046406184L255.69539708333335,165.80830756717415L255.90577458333334,161.86383789316912L255.98974104166666,163.48401827138326L256.25271291666667,157.30115823659295L256.574738125,157.9091022295535" style="fill: none;" fill="none"></path></g></g></g></g><g opacity="0.2"><g><g><g><path stroke="rgb(255, 112, 67)" stroke-width="2px" d="M20.437066875000003,-49.587629954020244L20.669589375,5.018559773762975L20.950092708333333,-31.487393697102917L23.723753958333337,-41.43741480509446L23.766198541666665,2.2688115437825065L23.863082916666666,-22.941130320231185L24.691675,-19.900377909342513L25.092130416666667,12.942321777343711L25.241609166666667,-43.26617431640633L25.578397708333334,-10.610903422037826L25.665132291666666,4.871973673502552L25.69281354166667,-7.750306447347057L25.968703333333334,-14.443682352701888L26.039751875,1.0255572001138802L26.177235416666665,-8.077117919921914L26.372849583333334,-11.974517822265703L26.586917916666668,16.81013870239254L26.63489875,2.7267532348632226L26.724401458333332,31.149909973144492L27.3380025,18.604559580484995L27.638805416666667,17.0582720438639L27.773520833333333,-30.917624155680404L28.0023525,11.307355244954381L28.14260416666667,11.224201202392539L28.570740833333335,32.786415100097614L28.591963125000003,-10.33780288696293L29.087457500000003,15.57765452067052L29.196337083333333,37.28372701009112L29.665995625,54.95483525594073L29.773029791666666,39.7070134480794L29.845001041666666,37.57892735799151L29.854228125,24.34274800618485L29.9732575,49.813481648762995L30.302664375,62.79124704996744L30.56748166666667,44.28398259480792L30.68743375,39.44307454427081L31.790070208333336,55.84358342488604L31.88326375,91.89991760253906L32.33815895833333,56.98752848307291L32.36399479166667,78.05074818929036L32.49686479166667,68.97492853800455L32.50147833333333,65.64030456542967L32.590981041666666,86.91759872436523L33.117847499999996,55.36577987670896L33.18243708333333,56.18857828776041L33.225804375,87.2139180501302L33.639177708333335,94.33236567179362L33.879081875,71.88671875L34.09591833333333,76.95519892374674L34.108836249999996,54.70928955078123L34.28507354166667,79.77271525065103L34.525900416666666,82.9772580464681L34.831316875,86.68820826212566L34.886679375,75.46653874715169L35.34249729166667,101.25121561686198L35.40339604166667,83.85166931152344L35.44953145833333,77.12416458129883L35.457835833333334,92.31498845418295L36.036373958333336,87.94139353434245L36.3953075,71.5168965657552L36.51341416666667,90.63302485148111L36.897260833333334,85.40089416503906L37.12424708333334,95.33476003011069L37.246967291666664,84.39724095662434L37.42320458333333,81.96143595377603L37.545924791666664,110.63426462809247L37.85134125,76.06519190470377L37.881790625,79.04915618896484L38.09585895833333,95.38637288411459L38.377285,93.0591786702474L38.55075416666667,107.69086329142254L38.972431875,108.45372645060223L39.04901666666667,91.70059967041016L40.11659020833333,82.30118560791016L40.16549375,94.41530990600586L40.17010729166667,135.76811599731448L40.47091020833333,93.90365727742514L40.684978541666666,104.0280990600586L41.04944833333333,97.26695505777995L41.13802833333333,113.29925028483075L41.17770479166667,85.51230239868164L41.34840583333333,87.49729919433594L41.541251875,87.1669209798177L42.10779479166667,97.17205174763998L42.169616250000004,112.59911982218426L42.397525208333334,117.1506322224935L42.44181520833334,113.17672220865887L43.401431875,124.62358601888022L43.471557708333336,102.68490600585938L44.20326541666667,118.57145436604819L44.28630916666667,121.2102139790853L44.666465,108.81214904785156L45.04477541666667,105.555783589681L45.23669875,150.27132797241214L45.52458375,122.42871093750001L45.67867604166667,132.10675048828128L45.69436208333333,101.53627522786459L45.854913333333336,104.04138692220053L45.999778541666664,101.46228281656902L46.251677916666665,125.36050287882489L46.35686666666667,129.47232691446942L46.44175583333333,106.76672744750977L46.57185770833333,143.82244873046878L47.05443416666667,112.35909907023114L47.26757979166667,131.03861618041995L47.6449675,125.53044764200848L47.76122875,122.75321451822919L47.766765,100.95174916585287L47.830431875,141.3813285827637L47.85165416666667,99.0985819498698L47.868262916666666,131.24352900187176L48.094326458333335,115.8861172993978L48.19213354166667,124.3985315958659L48.9293775,125.79914220174155L48.98012645833334,121.75508626302084L48.98843083333334,109.946652730306L49.24955729166667,131.3107376098633L49.29107916666667,105.90833155314128L49.303074374999994,128.2676073710124L49.66662145833333,128.75408299763998L49.71367958333333,90.58875528971353L49.761660416666665,144.70175552368167L49.78288270833333,125.15517044067384L49.86131291666666,118.43773651123048L50.00710083333333,94.63973490397136L50.23500979166667,110.9100227355957L50.363266249999995,127.92261250813803L51.04883854166667,134.2344868977865L51.358868541666666,131.75147501627606L51.473284375,109.19204203287762L51.527724166666665,120.72198994954428L51.53510583333333,114.86945597330731L51.555405416666666,138.93069712320965L52.023218541666665,142.69948450724286L52.34893458333333,111.64330291748047L52.75584895833333,110.8910001118978L52.86934208333333,123.96541722615561L53.126777708333336,153.2189954121908L53.193212708333334,112.56233342488608L53.706238541666664,123.538387298584L53.848335625000004,132.1696929931641L54.108539375,132.8491923014323L54.800570625,140.71280924479169L54.846706041666664,124.92983627319337L54.908527500000005,141.97410710652673L56.67920479166667,152.78693008422854L56.979085,108.3286107381185L57.05105625,138.826841990153L57.10734145833334,125.71864573160809L57.47181125,139.01350148518884L57.66465729166667,128.08612314860028L57.755082708333326,136.3031272888184L57.804908958333336,127.86862182617189L58.28656270833333,134.00754419962567L58.337311666666665,129.15313847859701L58.42312354166667,136.4132766723633L58.482176875,125.38840738932294L58.76268020833333,133.45099258422854L58.912158958333336,147.56934611002606L59.22772520833333,153.45454025268558L59.237874999999995,133.168940226237L59.243411249999994,152.63223139444992L59.41226687499999,141.84563446044925L60.058162708333334,138.16447703043622L60.16058333333333,120.77360280354819L60.27684458333333,134.299737294515L60.32298,143.23582458496097L60.70405854166667,111.76597086588544L61.93771958333333,129.11698150634768L62.59837875,117.43023681640626L62.623291875,154.55078887939456L62.75708458333333,126.19015502929689L62.805065416666665,125.76669184366864L62.85673708333333,128.89276631673178L63.0135975,153.41803359985354L63.18522125,124.81024551391603L63.348540625,138.309804280599L63.68348374999999,137.6551322937012L64.616341875,140.03421910603845L64.85809145833333,136.24277242024743L65.41817541666667,131.9686965942383L65.51690520833333,135.4437522888184L65.64700708333334,160.35856374104821L65.80571291666666,149.76939646402997L66.410086875,160.02335993448898L66.64353208333334,136.95416259765628L66.80223791666667,137.1213099161784L67.73970958333334,112.46819941202801L67.76739083333334,155.671864827474L67.80245375,158.00724156697595L67.95746875,130.23148345947268L68.22782229166667,120.53987630208334L68.538775,156.54690551757815L68.63750479166666,113.72047551472983L68.7048625,153.03967920939132L68.99643833333333,158.9562746683757L69.00935625,135.51655578613284L69.40243,152.87148284912112L69.70600104166667,133.92858632405603L69.80565354166667,143.7851028442383L70.18673208333334,136.37096532185876L70.27808020833334,132.22948837280276L70.40910479166666,131.38906606038412L70.44878125,147.71649169921878L70.966420625,152.67482248942062L71.07622291666667,145.01751708984378L71.265378125,138.77236175537112L71.45176520833333,144.17457707722986L71.5837125,141.3529345194499L71.72950041666667,186.65237553914392L72.31634291666667,149.30753835042321L72.339410625,151.5148620605469L72.52026145833334,161.54712804158532L73.25381458333334,153.85506439208987L74.28447979166667,123.40963490804037L74.68308979166667,157.74889755249026L74.70984833333333,160.78503417968753L74.86855416666667,127.8559633890788L74.94144812500001,169.04406992594406L75.11122645833333,150.84795125325525L75.38803895833333,159.45345052083337L75.47661895833333,156.9599482218425L75.68791916666666,128.81569671630862L75.86231104166667,155.72012074788415L75.92505520833333,144.31654739379886L76.1455825,152.03728485107425L76.30982458333334,149.55944824218753L76.47037583333334,139.37975692749026L77.0313825,138.91188430786136L77.04706854166668,138.86376825968426L77.26298229166667,135.04434712727868L77.32849458333334,163.11481602986657L77.56932145833333,157.41712061564132L77.69665520833334,161.39795430501306L77.87842875,128.9562683105469L78.02975291666667,126.79419326782228L78.08972895833332,139.70621871948245L78.141400625,149.0205904642741L78.60183208333333,144.10680898030603L79.10101729166666,137.170405069987L79.62419291666667,164.08601888020837L79.99143083333334,164.49682362874353L80.39742249999999,140.91324615478518L80.66685333333334,161.85820388793948L81.33304875,141.38090896606448L81.46591875,148.9892590840658L81.52312666666667,139.76832199096683L81.72150895833333,132.41125233968103L81.75380375,124.47895812988283L82.19578104166668,162.332021077474L82.46705729166666,142.1407648722331L82.81584104166666,165.05393473307296L82.91180270833333,165.19989140828454L83.661041875,151.64697138468426L83.843738125,158.91074625651046L84.40659020833333,149.28383000691736L84.50624270833333,153.59602101643884L85.07739916666667,175.62645721435553L85.18166520833334,146.851801554362L85.19735125,179.51826222737634L85.34775270833333,129.4605776468913L85.46585937500001,153.00443140665695L85.50553583333334,154.7096837361654L85.809106875,139.4443079630534L86.09053291666666,164.40618642171228L86.855458125,149.60133997599286L86.95972416666667,172.68179702758795L87.16456541666666,133.90103149414065L87.4838225,171.78234863281256L87.94148583333333,146.60289891560876L88.10849604166667,153.06933212280276L88.627058125,146.18621953328454L88.76177354166666,144.74875259399417L88.93893354166667,140.57510503133142L88.99152791666666,144.1495399475098L89.14654291666666,164.98385874430343L89.45934104166666,163.20104726155603L89.96590791666667,167.1424369812012L90.15414041666666,133.3258069356283L90.160599375,132.87325032552087L90.48908354166667,153.71113586425784L90.802804375,152.37025070190433L90.97350541666665,148.29975891113284L91.03440416666666,155.9256629943848L91.44408666666666,156.90707651774093L91.45331375,155.01691309611007L91.52713041666667,139.69775644938153L91.79471583333333,171.0694198608399L91.83254687499999,163.62073389689132L92.04661520833334,129.9946098327637L92.19055770833334,136.60420227050784L92.30866437499999,138.13895034790042L92.47659729166668,156.98428599039718L92.72203770833333,147.96581395467126L92.88812520833334,144.0289001464844L92.98777770833334,158.5634435017904L93.41130083333333,128.56798299153647L93.51648958333332,137.3428675333659L93.75639375,151.68326822916669L94.33400916666668,156.35660934448245L95.34068395833334,141.08193206787112L95.48462645833332,137.86584981282556L95.724530625,182.07764434814456L95.75959354166666,161.29493840535486L96.012415625,159.0267003377279L96.39349416666667,143.35856246948245L96.40456666666667,152.02091979980472L96.82716708333334,137.55176671346032L97.06891666666667,159.77445729573571L97.37341041666667,158.57253519694015L97.49982145833333,134.0902786254883L97.59024687499999,161.39641571044925L98.00269750000001,139.50857925415042L98.25090604166667,127.08974329630536L98.38469875,140.61874516805017L98.567395,150.76339848836267L98.61629854166667,172.16105270385748L99.06104395833333,160.26428985595706L99.16346458333334,154.3505617777507L99.455963125,156.01930745442712L99.62020520833333,173.08518854777023L99.79182895833334,160.8807067871094L99.83704166666668,147.68390146891278L99.91085833333334,153.26529312133792L100.03265583333334,146.48169962565106L100.22919270833333,143.02077102661136L100.38789854166667,149.42405192057294L100.56967208333333,158.62107086181643L100.67762895833333,140.55587259928387L100.72284166666667,153.98710378011071L101.52375249999999,157.80932235717776L101.92605333333333,175.05780665079757L102.412320625,153.12276331583664L102.41601145833333,153.00268300374353L103.11911520833333,130.3717753092448L103.27874374999999,160.83979415893558L103.36271020833333,144.97121938069665L103.77239270833334,163.54254531860354L103.98646104166667,144.30081176757815L104.0925725,149.39104207356775L104.19960666666667,148.8795293172201L104.42567020833333,156.7405586242676L104.63051145833333,138.2898724873861L104.787371875,152.85910415649417L104.981140625,149.66659037272137L105.03096687499999,156.32744598388675L105.033735,128.47559738159183L105.05680270833334,149.42076492309573L105.10570625,137.62303161621097L105.45356729166667,140.30655034383142L106.08839062499999,162.01255289713546L106.19265666666666,147.66746648152673L106.26739604166667,138.42100270589196L106.54236312500001,150.26083755493167L106.95296833333333,130.94217427571616L107.03878020833334,152.16561762491864L107.35250104166666,138.7143847147624L107.61547291666666,167.62086995442712L107.688366875,167.2697906494141L107.87106312499999,170.9850769042969L108.43945145833334,169.71140034993493L109.06043416666667,156.7773450215658L109.23943958333334,135.3977343241374L109.775533125,130.9890314737956L109.89548520833333,158.15802383422854L110.08925395833334,156.78028233846032L110.4703325,152.20674006144208L110.94275916666668,165.22073237101242L110.97136312500001,171.31489562988287L111.23618041666667,160.13763554890954L111.42810375,149.5599377950033L111.43548541666667,158.4372088114421L111.54067416666668,152.23800150553387L111.57758249999999,141.6330286661784L111.58404145833333,156.38514328002933L111.77135125,151.63529205322268L111.873771875,165.35626856486007L111.97526979166668,148.47145207722986L112.09337645833332,159.25063578287765L112.43293312499999,164.23659133911136L112.58425729166667,148.3347969055176L112.68021895833333,171.09760411580407L113.28920645833333,116.99936040242514L113.62138145833333,161.2810211181641L113.64998541666667,169.6873423258464L114.23405979166667,168.93245188395187L114.61698374999999,159.45785649617517L114.82367041666666,130.53395716349286L114.97222645833334,154.62925720214847L115.16599520833333,133.8740361531576L115.86448541666665,163.28266270955407L116.30369458333332,137.00164922078454L116.33968020833333,180.11425781250003L116.63402416666666,139.60816828409833L116.74198104166666,183.05975723266604L116.814875,141.8802528381348L116.84532437499999,149.79114659627282L117.25223875,179.19159062703454L117.38141791666668,150.36308415730798L117.68222083333333,153.4359372456869L117.68960249999999,126.57319513956708L117.70713395833333,159.6002464294434L117.72374270833333,158.2006848653158L117.84000395833333,160.50514984130862L117.90090270833333,155.75501887003585L117.98394645833334,149.97955449422204L118.41116041666668,147.44597880045575L119.13456375,153.79841613769534L119.41783520833334,170.2367604573568L119.48519291666668,155.66522089640304L119.75277833333334,136.95563125610354L119.86719416666666,160.77608235677087L119.92717020833332,155.97203063964847L121.207889375,133.77074050903323L121.55205958333335,157.84247207641604L121.62126270833333,137.35118993123376L121.78181395833334,145.51329421997073L121.82056770833333,136.19486618041995L122.00418666666667,153.08870442708337L122.47199979166666,163.7829856872559L122.52643958333333,143.29275258382165L122.78110708333334,125.49233245849611L122.98133479166667,177.1775703430176L123.00993875,161.13240687052414L123.13819520833333,148.13142267862958L123.31166437499999,152.73056157430017L123.71396520833333,169.99282328287765L123.80900416666667,163.15377044677737L124.36632,142.76137797037762L124.374624375,127.63447570800783L124.57762020833334,139.38101577758792L124.82398333333335,157.87820943196618L124.82767416666667,146.438409169515L124.89041833333333,149.4479001363119L125.00022062500001,154.09207789103195L125.21336625,151.41611226399743L125.98105958333333,149.17102305094403L127.02925624999999,170.3472595214844L127.51552354166667,145.90388743082684L127.73236,145.7207946777344L128.02578125,158.6721941630046L128.33673395833333,162.26103591918948L128.40962791666666,157.5889536539714L128.41424145833332,169.8481254577637L129.00385208333333,160.61732737223312L129.127495,169.04868570963546L129.50396,153.75925191243493L130.071425625,153.6302897135417L130.29748916666668,168.78111012776696L130.36853770833335,189.28071467081713L130.403600625,130.68991470336917L131.01351083333333,164.0004870096843L131.433343125,150.41637547810876L131.47855583333333,148.00036239624026L131.51361875,149.12626393636071L131.74798666666666,138.77823638916018L132.446476875,172.4912211100261L132.47508083333335,143.33667246500653L132.537825,156.26457341512048L132.54243854166666,149.85667673746747L132.66423604166667,153.20591735839847L132.87645895833333,153.88786443074548L132.98995208333332,126.1343460083008L133.227088125,166.23963165283206L133.62293,140.53664016723636L133.69859208333332,128.32341639200848L133.72904145833334,148.90575536092126L133.733655,137.2625109354655L134.14149208333333,153.82058588663742L134.27067125,168.7204055786133L134.3647875,130.92636871337893L134.73756166666666,159.86453501383468L134.76524291666666,153.98794301350915L134.83721416666668,149.29320144653323L135.48956895833334,171.3356666564942L135.66765166666667,170.46013641357425L136.20559062499999,173.86595535278326L136.38920958333333,124.45133336385092L136.825650625,167.30629730224612L136.91515333333334,144.33633931477868L137.56381729166665,144.58209482828778L137.76496770833333,154.017386118571L138.31213375,160.46773401896164L138.31951541666666,152.60376739501956L138.49575270833333,151.29323450724286L138.57879645833333,173.66258112589523L138.69321229166667,172.8104095458985L138.71628,159.5152740478516L138.868526875,165.21310933430993L138.90543520833336,137.61589813232425L138.98571083333331,171.95704905192062L139.06137291666667,136.48279317220056L139.08536333333333,145.45279947916669L140.39837729166666,142.34176127115887L141.1153216666667,157.5093663533529L141.310013125,169.39046351114914L141.33953979166668,152.02210871378583L141.4004385416667,131.87519200642905L141.40874291666665,163.48841476440433L141.487173125,157.7407150268555L142.00296708333332,164.2368710835775L142.05279333333334,136.86142730712893L142.134914375,148.6240526835124L142.1995039583333,146.40169270833337L142.39419541666666,177.60250218709314L142.395118125,151.10391743977868L142.6728533333333,167.60730234781906L142.937670625,146.4763844807943L143.31229020833334,175.92676289876306L143.40732916666667,165.98912048339847L144.46383020833335,162.97830073038742L144.64468104166667,135.65174229939782L144.65298541666667,165.33067194620773L144.89658041666667,174.9922765096029L145.49726354166665,166.98564020792648L145.50925875000001,170.36991882324222L145.650433125,148.39011637369794L145.89218270833334,152.6828651428223L146.20405812500002,139.99337641398114L146.29171541666668,139.38304392496747L146.38214083333335,179.34698867797854L146.62112229166667,160.0772806803386L146.88224875,149.91626230875653L147.37682041666667,171.59477996826178L147.62964250000002,141.41433842976892L147.770816875,145.9398345947266L148.04947479166665,146.6971728006999L148.172195,186.34528605143237L148.21463958333334,131.44571431477866L148.37888166666667,162.89997227986657L148.43424416666664,132.70484415690106L148.65200333333334,138.49695332845056L148.69813875,171.30139795939132L148.85130833333332,156.11043421427414L149.46860020833333,152.9707921346029L149.691895625,149.4660135904948L149.6955864583333,146.83746465047204L149.81553854166668,195.1354866027833L149.88474166666666,156.0623881022136L150.08220125,166.0244382222494L150.386695,135.48669306437176L150.48727020833334,166.31236521403L150.63767166666668,181.6712455749512L150.68380708333333,170.1928405761719L150.73363333333333,144.81610107421878L150.82221333333334,170.38852183024093L151.23743208333335,159.54177983601892L151.49948125,141.4352493286133L151.76522125,165.48145421346032L152.039265625,155.7660687764486L152.10939145833333,175.7004496256511L152.49416083333332,147.19281005859378L152.67501166666665,157.26277160644534L152.87154854166664,156.21848551432296L153.18434666666667,169.41487121582034L153.23878645833332,164.17301940917972L153.85054208333335,151.5027631123861L154.08860083333335,158.41294097900393L154.67267520833332,166.36565653483078L154.727115,163.29532114664718L154.88489812499998,146.05152257283532L154.97993708333334,147.79447046915692L155.08604854166666,148.5549558003744L155.30011687500001,164.72789255778L156.030901875,144.78539911905926L156.17392166666664,160.95372009277347L156.78936812499998,163.6419944763184L156.85118958333334,150.53918329874676L157.26456291666668,164.44241333007815L157.87816395833332,152.38731511433923L157.91230416666667,157.46229934692386L158.51206458333334,150.52372741699222L159.19855958333335,144.45669937133792L159.42923666666667,153.19955317179367L159.7438802083333,153.06296793619796L159.8749047916667,147.98196919759118L159.884131875,162.27628199259445L160.53279583333332,162.8040898640951L161.373383125,160.8672091166179L161.749848125,147.11895751953128L161.75353895833334,146.41567993164065L162.032196875,154.98481241861984L162.44557020833335,155.53793716430667L163.02410833333332,148.83421071370446L163.22987229166665,156.24268341064456L163.24279020833333,149.01443608601892L164.09721812499998,152.23331578572595L164.17380291666666,133.3637822469076L164.89259270833332,150.0054308573405L165.18970479166668,153.75295766194665L165.586469375,168.247917175293L166.0099925,157.26941553751632L166.3209452083333,150.18901316324872L166.34032208333332,133.12355168660486L166.439051875,128.6449826558431L166.859806875,171.44106038411462L166.94377333333335,150.3968633015951L167.396823125,154.41301472981775L168.48100541666668,157.13192113240564L168.620334375,147.8279698689779L168.99772208333334,157.57160949707034L169.0438575,166.17550023396814L169.45723083333334,147.06860351562503L169.47199416666666,168.54612477620446L169.72389354166665,157.83869552612308L169.932425625,157.39453125000003L170.04407333333333,143.29792785644534L170.425151875,159.1049588521322L170.61799791666667,157.68791325887048L170.696428125,147.44562911987308L170.72503208333333,143.7904879252116L170.84959770833333,151.83467992146814L171.01937604166667,137.80255762736004L171.067356875,176.83761088053393L171.25466666666668,154.32636388142907L171.33678770833333,138.60031890869143L172.16537979166668,156.4855715433757L172.31393583333335,152.15260950724286L172.3499214583333,151.6264801025391L172.42927437499998,173.08980433146164L172.54369020833335,146.65255355834964L172.844493125,179.33181254069018L173.11300125000002,157.05464172363284L174.0052602083333,141.9945983886719L174.42601520833335,163.40665944417321L174.47768687500002,150.39700317382815L174.57918479166668,132.8447863260905L174.6806827083333,179.71121597290042L174.95472708333332,159.70186360677087L174.95564979166667,159.62479400634768L175.51757916666668,155.44366327921554L175.58955041666667,163.36644617716476L175.656908125,169.78224563598636L176.443055625,169.8009185791016L176.69403229166667,175.1888669331869L177.02805270833332,156.21345011393234L177.08618333333334,159.51751200358078L177.15446375,139.48773829142254L177.30855604166666,159.8265597025554L177.85018583333334,139.46661758422854L178.020886875,144.1128934224447L178.153756875,163.65898895263675L178.485931875,140.9036649068197L178.65017395833334,164.57955805460617L178.73598583333333,138.44226328531903L179.0312525,154.35356903076175L179.166890625,165.97492345174157L179.53043770833335,124.95137659708661L179.65869416666666,169.7585372924805L179.8460039583333,165.4113782246908L179.94381104166666,166.62225214640304L180.14496145833334,166.21830113728845L180.14865229166668,184.58436457316088L180.47713645833335,146.15572738647464L180.550953125,166.30809911092126L180.59616583333332,176.81558100382495L180.70135458333334,173.62194824218756L180.82130666666666,148.29080708821618L180.938490625,147.5266151428223L181.26974291666667,150.04977035522464L181.55485979166667,165.29829152425134L182.21367354166668,151.7676811218262L182.50894020833334,183.48615773518884L182.7294675,149.91947937011722L183.324614375,168.15420277913415L183.656789375,146.4505081176758L183.83579479166667,160.0728747049968L184.00372770833334,167.35483296712243L184.08584875,175.74821599324548L184.13659770833334,132.4108327229818L184.398646875,149.21403376261395L184.43832333333333,160.73579915364587L184.52413520833332,160.0865122477214L184.55643,136.25773874918622L184.77972541666668,180.57003148396814L184.89414125,164.89490000406906L185.05284708333332,163.85453033447268L185.08606458333333,161.59090805053714L185.1875625,162.7477213541667L185.28260145833332,146.57128779093426L185.29644208333332,143.87622960408532L185.843608125,150.6606623331706L185.87036666666665,147.1473515828451L185.93311083333333,158.32111485799157L186.00508208333332,173.94463348388678L186.441523125,154.75311406453454L186.65282333333332,151.7431335449219L186.67312291666667,160.81692504882815L186.85397375,145.99767176310223L186.878886875,139.64957046508792L187.161235625,148.01162211100262L187.21106187499998,175.87291208903L187.30979166666665,146.44694137573245L187.34300916666666,154.34762446085617L187.41498041666668,169.8170738220215L187.714860625,151.96000544230145L187.825585625,163.49359003702804L188.69846770833334,175.46182759602868L188.79166124999998,179.03996912638354L189.14136770833335,145.9317919413249L189.24009750000002,147.56738789876306L189.75496875,159.29259745279953L190.15265604166666,164.90175374348962L190.36303354166665,139.71538035074872L190.46360875,153.16367594401046L190.70535833333332,146.00151824951175L190.85114625,138.7372538248698L191.09381854166668,165.43858337402347L191.429684375,129.91376368204754L192.010990625,162.3498547871908L192.25274020833334,152.90952809651696L192.44005,164.77887598673507L193.173603125,184.21936798095706L193.494705625,178.21996815999353L193.49655104166666,159.9802792867025L193.92007416666667,173.83413441975915L193.93576020833333,168.51675160725915L193.954214375,161.31878662109378L194.58811500000002,157.7355397542318L194.68038583333333,145.29984919230145L194.68592208333334,173.8094469706218L195.15373520833333,148.20422617594403L195.16019416666668,149.241938273112L195.17126666666664,160.74034500122073L195.29490958333332,161.01883061726892L195.41301625,152.90281422932946L195.45915166666666,158.71548461914065L195.48406479166667,142.8754437764486L195.49513729166665,169.5148798624675L195.77010437500002,162.592882792155L195.91681499999999,164.6383743286133L196.20008645833332,165.86771138509118L196.27298041666668,143.24806340535486L196.69465812500002,170.6553281148275L196.7933879166667,164.00335439046228L196.87550895833334,144.22835795084637L197.06097333333335,160.20918019612634L197.20030229166667,142.53023910522464L197.47619208333333,132.4583892822266L197.68287875,143.4725583394369L198.42565895833334,164.83909098307296L198.781824375,149.12185796101892L199.00696520833333,155.45555241902673L199.79403541666667,170.2420756022136L200.08930208333334,158.512809753418L200.359655625,163.4701614379883L200.91604875000002,156.9856847127279L201.012933125,168.74747085571292L201.10335854166667,111.49461873372397L201.300818125,158.29964447021487L201.32388583333335,160.14609781901046L201.364485,159.51667277018234L201.95225020833334,147.79607899983728L202.00484458333335,159.69934590657556L202.1690866666667,140.01372782389325L202.45881708333334,152.65572992960617L202.53355645833332,169.0667991638184L203.3510760416667,151.060417175293L203.58452125,160.46892293294275L203.72385020833332,161.02827199300134L203.858565625,168.1216824849447L203.98036312500003,165.65433629353845L204.56812833333333,160.55543390909835L204.65117208333334,167.20461018880212L204.9704291666667,154.8988609313965L205.06639083333334,138.42268117268884L205.44008770833332,162.48650995890304L205.80363479166667,139.28688176472986L206.04907520833333,165.17380523681643L206.07675645833334,158.01913070678714L206.52427,142.65325673421228L206.59162770833333,157.26165262858078L206.65252645833334,161.12513351440433L206.693125625,163.69479624430343L207.008691875,162.7542254130046L207.09358104166668,140.701899210612L207.36947083333334,142.83544031778973L207.81882979166664,182.55272038777673L207.95262250000002,157.57063039143884L208.80981854166666,142.09684499104821L208.92515708333335,168.19525527954104L209.56459395833332,165.80854543050134L209.59873416666667,156.9330927530925L209.78143041666667,160.7642631530762L209.8570925,171.92313003540045L210.07300625,138.74417750040692L210.07761979166668,150.93732961018884L210.76596020833333,176.92090479532885L210.80840479166667,175.33552296956384L210.98556479166666,142.56709543863934L211.06030416666667,160.89840062459314L211.11289854166665,150.45134353637698L211.7772485416667,143.7286643981934L212.10573270833333,129.96425755818686L212.15555895833333,140.00099945068362L212.18324020833333,157.63084538777673L212.23029833333334,149.17927551269534L212.59753625000002,153.84974924723312L213.00629604166667,146.5533142089844L213.17146083333333,133.05669275919598L213.59590666666668,170.01779047648117L213.62727875,172.69921112060553L213.63373770833334,162.81052398681643L214.4853975,152.21142578125003L214.68470250000001,152.6674791971843L215.37027479166667,146.292662302653L215.59357020833335,162.0466117858887L216.05676979166665,142.75025812784833L216.10751875,167.310843149821L216.28098791666665,153.73987960815433L216.42677583333332,136.8728268941244L216.69620666666665,168.56311925252282L217.21845958333336,158.03060022989914L217.245218125,174.34431838989263L217.2572133333333,152.94351704915368L218.50471499999998,145.09248860677087L218.5508504166667,166.0538113911947L218.64681208333332,154.1915270487468L218.86272583333334,156.7025133768718L219.08509854166667,174.5159416198731L219.27240833333335,144.6141255696615L219.73468520833333,157.48544820149743L219.77436166666666,133.54016113281253L219.83618312500002,148.8327420552572L220.01703395833334,161.7822532653809L220.44424791666665,145.5011253356934L220.650011875,152.64677810668948L220.75150979166665,181.5230509440105L221.414014375,135.88560867309573L221.962103125,167.9171892801921L222.978005,172.5775922139486L223.32309791666665,168.5655670166016L223.89794520833334,152.28373972574872L224.18121666666664,138.96727371215823L224.19782541666666,164.27659479777023L224.52723229166668,171.2530021667481L224.60658520833334,162.44650650024417L225.10577041666664,163.1118087768555L225.53944333333334,165.484671274821L225.621564375,170.44754791259768L225.98695687499998,138.70837020874026L226.40309833333333,168.83482106526696L226.41140270833333,144.78784688313806L226.59317625,175.1604728698731L226.66883833333333,175.61114120483404L226.684524375,149.46657307942712L227.20031833333334,170.11577097574875L228.02521958333332,173.99156061808273L228.10734062499998,144.44732793172204L228.1710075,161.8744990030925L228.6129847916667,160.707265218099L228.9193239583333,151.74453226725262L229.13985125,179.7253430684408L229.347460625,148.36675771077478L229.40743666666665,176.45324198404955L229.5458429166667,130.5931231180827L229.55968354166666,150.17740376790368L229.801433125,161.42019399007165L229.82542354166665,175.47224807739263L229.906621875,168.60752868652347L230.09946791666667,152.3073081970215L230.188970625,155.0507621765137L230.38366208333332,153.77121098836267L230.46393770833333,140.0865313212077L230.537754375,160.6560719807943L230.681696875,151.07706197102868L230.85701145833332,171.88011932373053L231.37003729166668,160.84315109252933L231.71513020833333,171.72220357259118L231.9135125,150.36728032430017L232.0463825,137.70681508382165L232.28720937499997,158.27733484903976L232.30012729166668,165.94603983561203L232.414543125,171.2012494405111L232.425615625,183.1659202575684L232.4671375,157.89247639973962L232.641529375,155.23000844319665L232.76978583333334,157.787712097168L232.79377624999998,162.34593836466476L233.15916875000002,171.9736938476563L233.16378229166668,152.394588470459L233.22560374999998,165.37312316894534L233.40091833333332,183.9555689493816L233.43690395833332,144.09512964884442L233.494111875,159.66850407918298L233.75708375,168.07713317871097L234.241505625,170.83219655354821L234.40759312499998,143.33366521199548L234.485100625,166.263479868571L234.53584958333332,138.1707712809245L234.717623125,154.88816070556643L234.745304375,148.42228698730472L235.04610729166666,145.16424306233728L235.74644291666667,151.54759216308597L235.863626875,162.30082956949875L236.5086,153.24641036987308L237.54295604166666,145.00199127197268L238.39277041666668,145.1489270528158L238.53302208333332,167.05585606892907L238.85504729166666,164.407585144043L239.273956875,158.15781402587893L239.43635354166665,154.42483393351242L239.56830083333332,172.2061614990235L240.05272270833333,170.27095921834314L240.79734833333333,168.4134559631348L240.81395708333335,138.72235743204754L240.945904375,147.700616200765L241.12214166666666,158.90578079223636L241.17658145833332,146.44603220621747L241.31314229166665,144.12072626749676L241.35466416666668,117.38946406046551L241.366659375,174.63637161254888L241.89629395833333,133.93949635823571L242.19063791666665,170.1011543273926L242.39732458333333,160.87909825642907L242.74426291666666,175.64918645222986L242.87713291666665,173.7376925150554L243.060751875,144.92429224650067L243.18624020833332,164.81223551432296L243.68081187500002,151.78796259562176L244.29718104166665,146.07516098022464L244.533394375,157.84981536865237L244.82866104166666,155.39407857259118L244.91631833333332,159.16055806477868L245.03350229166665,156.48941802978518L245.69877499999998,181.44346364339196L246.78018916666667,156.4971110026042L246.87246,154.99369430541995L247.10959604166666,142.08159891764325L247.152040625,149.87891642252606L247.19725333333332,160.57158915201828L247.57187291666665,171.55694452921554L247.71397,156.9554023742676L247.755491875,157.07233556111657L248.13933854166666,152.227720896403L248.20854166666666,164.02384567260745L248.25283166666665,155.91391372680667L248.27220854166666,144.49495442708337L248.35248416666667,121.58975728352866L248.533335,159.44442876180017L248.59331104166665,146.36085001627606L249.006684375,150.58310317993167L249.26412,170.81345367431643L249.45327520833334,146.1111780802409L249.79190916666667,176.7676048278809L250.125006875,158.78395207722986L250.18129208333335,160.15812683105472L250.48670854166667,158.58834075927737L250.65464145833334,148.10065078735354L250.659255,145.99004872639978L250.695240625,151.1647618611654L250.81980625,140.5612576802572L251.09292791666667,162.07892227172854L251.26362895833333,171.47560882568365L251.315300625,144.77637736002606L251.84401250000002,130.1229426066081L251.855085,160.75356292724612L252.256463125,140.9594739278158L252.41332354166667,173.523058573405L252.52312583333335,161.1624794006348L253.56947708333334,152.755179087321L253.582395,158.91613133748376L253.58700854166668,126.64823659261069L254.64443229166667,162.80157216389978L254.84373729166666,168.09706497192386L254.90555875,174.78323745727545L254.93047187500002,148.49047470092776L254.93877625000002,174.49971644083664L255.50716458333335,161.93163681030276L255.69539708333335,168.9911982218425L255.90577458333334,155.9471333821615L255.98974104166666,165.91428883870446L256.25271291666667,148.0268681844076L256.574738125,158.82101821899417" style="fill: none;" fill="none"></path></g></g></g></g></g></g><g transform="translate(53, 176)" clip-path="url(#clip_1)"><clipPath id="clip_1"><rect width="276" height="23"></rect></clipPath><g><g><line x1="0" y1="0" x2="0" y2="5" style="visibility: inherit;" fill="rgb(0, 0, 0)" stroke="rgb(204, 204, 204)" stroke-width="1px"></line><line x1="18.454166666666666" y1="0" x2="18.454166666666666" y2="5" style="visibility: inherit;" fill="rgb(0, 0, 0)" stroke="rgb(204, 204, 204)" stroke-width="1px"></line><line x1="36.90833333333333" y1="0" x2="36.90833333333333" y2="5" style="visibility: inherit;" fill="rgb(0, 0, 0)" stroke="rgb(204, 204, 204)" stroke-width="1px"></line><line x1="55.362500000000004" y1="0" x2="55.362500000000004" y2="5" style="visibility: inherit;" fill="rgb(0, 0, 0)" stroke="rgb(204, 204, 204)" stroke-width="1px"></line><line x1="73.81666666666666" y1="0" x2="73.81666666666666" y2="5" style="visibility: inherit;" fill="rgb(0, 0, 0)" stroke="rgb(204, 204, 204)" stroke-width="1px"></line><line x1="92.27083333333333" y1="0" x2="92.27083333333333" y2="5" style="visibility: inherit;" fill="rgb(0, 0, 0)" stroke="rgb(204, 204, 204)" stroke-width="1px"></line><line x1="110.72500000000001" y1="0" x2="110.72500000000001" y2="5" style="visibility: inherit;" fill="rgb(0, 0, 0)" stroke="rgb(204, 204, 204)" stroke-width="1px"></line><line x1="129.17916666666667" y1="0" x2="129.17916666666667" y2="5" style="visibility: inherit;" fill="rgb(0, 0, 0)" stroke="rgb(204, 204, 204)" stroke-width="1px"></line><line x1="147.63333333333333" y1="0" x2="147.63333333333333" y2="5" style="visibility: inherit;" fill="rgb(0, 0, 0)" stroke="rgb(204, 204, 204)" stroke-width="1px"></line><line x1="166.0875" y1="0" x2="166.0875" y2="5" style="visibility: inherit;" fill="rgb(0, 0, 0)" stroke="rgb(204, 204, 204)" stroke-width="1px"></line><line x1="184.54166666666666" y1="0" x2="184.54166666666666" y2="5" style="visibility: inherit;" fill="rgb(0, 0, 0)" stroke="rgb(204, 204, 204)" stroke-width="1px"></line><line x1="202.9958333333333" y1="0" x2="202.9958333333333" y2="5" style="visibility: inherit;" fill="rgb(0, 0, 0)" stroke="rgb(204, 204, 204)" stroke-width="1px"></line><line x1="221.45000000000002" y1="0" x2="221.45000000000002" y2="5" style="visibility: inherit;" fill="rgb(0, 0, 0)" stroke="rgb(204, 204, 204)" stroke-width="1px"></line><line x1="239.90416666666667" y1="0" x2="239.90416666666667" y2="5" style="visibility: inherit;" fill="rgb(0, 0, 0)" stroke="rgb(204, 204, 204)" stroke-width="1px"></line><line x1="258.35833333333335" y1="0" x2="258.35833333333335" y2="5" style="visibility: inherit;" fill="rgb(0, 0, 0)" stroke="rgb(204, 204, 204)" stroke-width="1px"></line><line x1="276.8125" y1="0" x2="276.8125" y2="5" style="visibility: inherit;" fill="rgb(0, 0, 0)" stroke="rgb(204, 204, 204)" stroke-width="1px"></line></g><g transform="translate(0, 8)"><text x="0" y="0" dx="0em" dy="0.95em" style="text-anchor: middle; visibility: hidden; font-family: Roboto, sans-serif; font-size: 12px; font-weight: 200;" fill="rgb(33, 33, 33)" stroke="none" stroke-width="1px">-20k</text><text x="18.454166666666666" y="0" dx="0em" dy="0.95em" style="text-anchor: middle; visibility: inherit; font-family: Roboto, sans-serif; font-size: 12px; font-weight: 200;" fill="rgb(33, 33, 33)" stroke="none" stroke-width="1px">0</text><text x="36.90833333333333" y="0" dx="0em" dy="0.95em" style="text-anchor: middle; visibility: hidden; font-family: Roboto, sans-serif; font-size: 12px; font-weight: 200;" fill="rgb(33, 33, 33)" stroke="none" stroke-width="1px">20k</text><text x="55.362500000000004" y="0" dx="0em" dy="0.95em" style="text-anchor: middle; visibility: inherit; font-family: Roboto, sans-serif; font-size: 12px; font-weight: 200;" fill="rgb(33, 33, 33)" stroke="none" stroke-width="1px">40k</text><text x="73.81666666666666" y="0" dx="0em" dy="0.95em" style="text-anchor: middle; visibility: hidden; font-family: Roboto, sans-serif; font-size: 12px; font-weight: 200;" fill="rgb(33, 33, 33)" stroke="none" stroke-width="1px">60k</text><text x="92.27083333333333" y="0" dx="0em" dy="0.95em" style="text-anchor: middle; visibility: inherit; font-family: Roboto, sans-serif; font-size: 12px; font-weight: 200;" fill="rgb(33, 33, 33)" stroke="none" stroke-width="1px">80k</text><text x="110.72500000000001" y="0" dx="0em" dy="0.95em" style="text-anchor: middle; visibility: hidden; font-family: Roboto, sans-serif; font-size: 12px; font-weight: 200;" fill="rgb(33, 33, 33)" stroke="none" stroke-width="1px">100k</text><text x="129.17916666666667" y="0" dx="0em" dy="0.95em" style="text-anchor: middle; visibility: inherit; font-family: Roboto, sans-serif; font-size: 12px; font-weight: 200;" fill="rgb(33, 33, 33)" stroke="none" stroke-width="1px">120k</text><text x="147.63333333333333" y="0" dx="0em" dy="0.95em" style="text-anchor: middle; visibility: hidden; font-family: Roboto, sans-serif; font-size: 12px; font-weight: 200;" fill="rgb(33, 33, 33)" stroke="none" stroke-width="1px">140k</text><text x="166.0875" y="0" dx="0em" dy="0.95em" style="text-anchor: middle; visibility: inherit; font-family: Roboto, sans-serif; font-size: 12px; font-weight: 200;" fill="rgb(33, 33, 33)" stroke="none" stroke-width="1px">160k</text><text x="184.54166666666666" y="0" dx="0em" dy="0.95em" style="text-anchor: middle; visibility: hidden; font-family: Roboto, sans-serif; font-size: 12px; font-weight: 200;" fill="rgb(33, 33, 33)" stroke="none" stroke-width="1px">180k</text><text x="202.9958333333333" y="0" dx="0em" dy="0.95em" style="text-anchor: middle; visibility: inherit; font-family: Roboto, sans-serif; font-size: 12px; font-weight: 200;" fill="rgb(33, 33, 33)" stroke="none" stroke-width="1px">200k</text><text x="221.45000000000002" y="0" dx="0em" dy="0.95em" style="text-anchor: middle; visibility: hidden; font-family: Roboto, sans-serif; font-size: 12px; font-weight: 200;" fill="rgb(33, 33, 33)" stroke="none" stroke-width="1px">220k</text><text x="239.90416666666667" y="0" dx="0em" dy="0.95em" style="text-anchor: middle; visibility: inherit; font-family: Roboto, sans-serif; font-size: 12px; font-weight: 200;" fill="rgb(33, 33, 33)" stroke="none" stroke-width="1px">240k</text><text x="258.35833333333335" y="0" dx="0em" dy="0.95em" style="text-anchor: middle; visibility: hidden; font-family: Roboto, sans-serif; font-size: 12px; font-weight: 200;" fill="rgb(33, 33, 33)" stroke="none" stroke-width="1px">260k</text><text x="276.8125" y="0" dx="0em" dy="0.95em" style="text-anchor: middle; visibility: hidden; font-family: Roboto, sans-serif; font-size: 12px; font-weight: 200;" fill="rgb(33, 33, 33)" stroke="none" stroke-width="1px">280k</text></g><line x1="0" y1="0" x2="276.8125" y2="0" fill="rgb(0, 0, 0)" stroke="rgb(204, 204, 204)" stroke-width="1px"></line></g></g></g></g></svg>