<svg viewBox="0 0 329.9917297363281 199.99998474121094" xmlns="http://www.w3.org/2000/svg"><g><g><g><g><g><line x1="53.1875" y1="176" x2="48.1875" y2="176" style="visibility: inherit;" fill="rgb(0, 0, 0)" stroke="rgb(204, 204, 204)" stroke-width="1px"></line><line x1="53.1875" y1="164.26666666666665" x2="48.1875" y2="164.26666666666665" style="visibility: inherit;" fill="rgb(0, 0, 0)" stroke="rgb(204, 204, 204)" stroke-width="1px"></line><line x1="53.1875" y1="152.5333333333333" x2="48.1875" y2="152.5333333333333" style="visibility: inherit;" fill="rgb(0, 0, 0)" stroke="rgb(204, 204, 204)" stroke-width="1px"></line><line x1="53.1875" y1="140.79999999999995" x2="48.1875" y2="140.79999999999995" style="visibility: inherit;" fill="rgb(0, 0, 0)" stroke="rgb(204, 204, 204)" stroke-width="1px"></line><line x1="53.1875" y1="129.0666666666666" x2="48.1875" y2="129.0666666666666" style="visibility: inherit;" fill="rgb(0, 0, 0)" stroke="rgb(204, 204, 204)" stroke-width="1px"></line><line x1="53.1875" y1="117.33333333333324" x2="48.1875" y2="117.33333333333324" style="visibility: inherit;" fill="rgb(0, 0, 0)" stroke="rgb(204, 204, 204)" stroke-width="1px"></line><line x1="53.1875" y1="105.5999999999999" x2="48.1875" y2="105.5999999999999" style="visibility: inherit;" fill="rgb(0, 0, 0)" stroke="rgb(204, 204, 204)" stroke-width="1px"></line><line x1="53.1875" y1="93.86666666666655" x2="48.1875" y2="93.86666666666655" style="visibility: inherit;" fill="rgb(0, 0, 0)" stroke="rgb(204, 204, 204)" stroke-width="1px"></line><line x1="53.1875" y1="82.1333333333332" x2="48.1875" y2="82.1333333333332" style="visibility: inherit;" fill="rgb(0, 0, 0)" stroke="rgb(204, 204, 204)" stroke-width="1px"></line><line x1="53.1875" y1="70.4000000000001" x2="48.1875" y2="70.4000000000001" style="visibility: inherit;" fill="rgb(0, 0, 0)" stroke="rgb(204, 204, 204)" stroke-width="1px"></line><line x1="53.1875" y1="58.66666666666675" x2="48.1875" y2="58.66666666666675" style="visibility: inherit;" fill="rgb(0, 0, 0)" stroke="rgb(204, 204, 204)" stroke-width="1px"></line><line x1="53.1875" y1="46.9333333333334" x2="48.1875" y2="46.9333333333334" style="visibility: inherit;" fill="rgb(0, 0, 0)" stroke="rgb(204, 204, 204)" stroke-width="1px"></line><line x1="53.1875" y1="35.20000000000005" x2="48.1875" y2="35.20000000000005" style="visibility: inherit;" fill="rgb(0, 0, 0)" stroke="rgb(204, 204, 204)" stroke-width="1px"></line><line x1="53.1875" y1="23.4666666666667" x2="48.1875" y2="23.4666666666667" style="visibility: inherit;" fill="rgb(0, 0, 0)" stroke="rgb(204, 204, 204)" stroke-width="1px"></line><line x1="53.1875" y1="11.73333333333335" x2="48.1875" y2="11.73333333333335" style="visibility: inherit;" fill="rgb(0, 0, 0)" stroke="rgb(204, 204, 204)" stroke-width="1px"></line><line x1="53.1875" y1="0" x2="48.1875" y2="0" style="visibility: inherit;" fill="rgb(0, 0, 0)" stroke="rgb(204, 204, 204)" stroke-width="1px"></line></g><g transform="translate(43.1875, 0)"><text x="0" y="176" dx="0em" dy="0.3em" style="text-anchor: end; visibility: hidden; font-family: Roboto, sans-serif; font-size: 12px; font-weight: 200;" fill="rgb(33, 33, 33)" stroke="none" stroke-width="1px">2.08</text><text x="0" y="164.26666666666665" dx="0em" dy="0.3em" style="text-anchor: end; visibility: inherit; font-family: Roboto, sans-serif; font-size: 12px; font-weight: 200;" fill="rgb(33, 33, 33)" stroke="none" stroke-width="1px">2.1</text><text x="0" y="152.5333333333333" dx="0em" dy="0.3em" style="text-anchor: end; visibility: hidden; font-family: Roboto, sans-serif; font-size: 12px; font-weight: 200;" fill="rgb(33, 33, 33)" stroke="none" stroke-width="1px">2.12</text><text x="0" y="140.79999999999995" dx="0em" dy="0.3em" style="text-anchor: end; visibility: hidden; font-family: Roboto, sans-serif; font-size: 12px; font-weight: 200;" fill="rgb(33, 33, 33)" stroke="none" stroke-width="1px">2.14</text><text x="0" y="129.0666666666666" dx="0em" dy="0.3em" style="text-anchor: end; visibility: inherit; font-family: Roboto, sans-serif; font-size: 12px; font-weight: 200;" fill="rgb(33, 33, 33)" stroke="none" stroke-width="1px">2.16</text><text x="0" y="117.33333333333324" dx="0em" dy="0.3em" style="text-anchor: end; visibility: hidden; font-family: Roboto, sans-serif; font-size: 12px; font-weight: 200;" fill="rgb(33, 33, 33)" stroke="none" stroke-width="1px">2.18</text><text x="0" y="105.5999999999999" dx="0em" dy="0.3em" style="text-anchor: end; visibility: hidden; font-family: Roboto, sans-serif; font-size: 12px; font-weight: 200;" fill="rgb(33, 33, 33)" stroke="none" stroke-width="1px">2.2</text><text x="0" y="93.86666666666655" dx="0em" dy="0.3em" style="text-anchor: end; visibility: inherit; font-family: Roboto, sans-serif; font-size: 12px; font-weight: 200;" fill="rgb(33, 33, 33)" stroke="none" stroke-width="1px">2.22</text><text x="0" y="82.1333333333332" dx="0em" dy="0.3em" style="text-anchor: end; visibility: hidden; font-family: Roboto, sans-serif; font-size: 12px; font-weight: 200;" fill="rgb(33, 33, 33)" stroke="none" stroke-width="1px">2.24</text><text x="0" y="70.4000000000001" dx="0em" dy="0.3em" style="text-anchor: end; visibility: hidden; font-family: Roboto, sans-serif; font-size: 12px; font-weight: 200;" fill="rgb(33, 33, 33)" stroke="none" stroke-width="1px">2.26</text><text x="0" y="58.66666666666675" dx="0em" dy="0.3em" style="text-anchor: end; visibility: inherit; font-family: Roboto, sans-serif; font-size: 12px; font-weight: 200;" fill="rgb(33, 33, 33)" stroke="none" stroke-width="1px">2.28</text><text x="0" y="46.9333333333334" dx="0em" dy="0.3em" style="text-anchor: end; visibility: hidden; font-family: Roboto, sans-serif; font-size: 12px; font-weight: 200;" fill="rgb(33, 33, 33)" stroke="none" stroke-width="1px">2.3</text><text x="0" y="35.20000000000005" dx="0em" dy="0.3em" style="text-anchor: end; visibility: hidden; font-family: Roboto, sans-serif; font-size: 12px; font-weight: 200;" fill="rgb(33, 33, 33)" stroke="none" stroke-width="1px">2.32</text><text x="0" y="23.4666666666667" dx="0em" dy="0.3em" style="text-anchor: end; visibility: inherit; font-family: Roboto, sans-serif; font-size: 12px; font-weight: 200;" fill="rgb(33, 33, 33)" stroke="none" stroke-width="1px">2.34</text><text x="0" y="11.73333333333335" dx="0em" dy="0.3em" style="text-anchor: end; visibility: hidden; font-family: Roboto, sans-serif; font-size: 12px; font-weight: 200;" fill="rgb(33, 33, 33)" stroke="none" stroke-width="1px">2.36</text><text x="0" y="0" dx="0em" dy="0.3em" style="text-anchor: end; visibility: hidden; font-family: Roboto, sans-serif; font-size: 12px; font-weight: 200;" fill="rgb(33, 33, 33)" stroke="none" stroke-width="1px">2.38</text></g><line x1="53.1875" y1="0" x2="53.1875" y2="176" fill="rgb(0, 0, 0)" stroke="rgb(204, 204, 204)" stroke-width="1px"></line></g></g><g transform="translate(53, 0)" clip-path="url(#clip_0)"><clipPath id="clip_0"><rect width="276" height="175"></rect></clipPath><g><g><g><line x1="0" y1="0" x2="0" y2="176" fill="rgb(0, 0, 0)" stroke="rgb(66, 66, 66)" stroke-width="1px" opacity="0.25"></line><line x1="18.454166666666666" y1="0" x2="18.454166666666666" y2="176" fill="rgb(0, 0, 0)" stroke="rgb(66, 66, 66)" stroke-width="1px" opacity="0.25"></line><line x1="36.90833333333333" y1="0" x2="36.90833333333333" y2="176" fill="rgb(0, 0, 0)" stroke="rgb(66, 66, 66)" stroke-width="1px" opacity="0.25"></line><line x1="55.362500000000004" y1="0" x2="55.362500000000004" y2="176" fill="rgb(0, 0, 0)" stroke="rgb(66, 66, 66)" stroke-width="1px" opacity="0.25"></line><line x1="73.81666666666666" y1="0" x2="73.81666666666666" y2="176" fill="rgb(0, 0, 0)" stroke="rgb(66, 66, 66)" stroke-width="1px" opacity="0.25"></line><line x1="92.27083333333333" y1="0" x2="92.27083333333333" y2="176" fill="rgb(0, 0, 0)" stroke="rgb(66, 66, 66)" stroke-width="1px" opacity="0.25"></line><line x1="110.72500000000001" y1="0" x2="110.72500000000001" y2="176" fill="rgb(0, 0, 0)" stroke="rgb(66, 66, 66)" stroke-width="1px" opacity="0.25"></line><line x1="129.17916666666667" y1="0" x2="129.17916666666667" y2="176" fill="rgb(0, 0, 0)" stroke="rgb(66, 66, 66)" stroke-width="1px" opacity="0.25"></line><line x1="147.63333333333333" y1="0" x2="147.63333333333333" y2="176" fill="rgb(0, 0, 0)" stroke="rgb(66, 66, 66)" stroke-width="1px" opacity="0.25"></line><line x1="166.0875" y1="0" x2="166.0875" y2="176" fill="rgb(0, 0, 0)" stroke="rgb(66, 66, 66)" stroke-width="1px" opacity="0.25"></line><line x1="184.54166666666666" y1="0" x2="184.54166666666666" y2="176" fill="rgb(0, 0, 0)" stroke="rgb(66, 66, 66)" stroke-width="1px" opacity="0.25"></line><line x1="202.9958333333333" y1="0" x2="202.9958333333333" y2="176" fill="rgb(0, 0, 0)" stroke="rgb(66, 66, 66)" stroke-width="1px" opacity="0.25"></line><line x1="221.45000000000002" y1="0" x2="221.45000000000002" y2="176" fill="rgb(0, 0, 0)" stroke="rgb(66, 66, 66)" stroke-width="1px" opacity="0.25"></line><line x1="239.90416666666667" y1="0" x2="239.90416666666667" y2="176" fill="rgb(0, 0, 0)" stroke="rgb(66, 66, 66)" stroke-width="1px" opacity="0.25"></line><line x1="258.35833333333335" y1="0" x2="258.35833333333335" y2="176" fill="rgb(0, 0, 0)" stroke="rgb(66, 66, 66)" stroke-width="1px" opacity="0.25"></line><line x1="276.8125" y1="0" x2="276.8125" y2="176" fill="rgb(0, 0, 0)" stroke="rgb(66, 66, 66)" stroke-width="1px" opacity="0.25"></line></g><g><line x1="0" y1="176" x2="276.8125" y2="176" fill="rgb(0, 0, 0)" stroke="rgb(66, 66, 66)" stroke-width="1px" opacity="0.25"></line><line x1="0" y1="164.26666666666665" x2="276.8125" y2="164.26666666666665" fill="rgb(0, 0, 0)" stroke="rgb(66, 66, 66)" stroke-width="1px" opacity="0.25"></line><line x1="0" y1="152.5333333333333" x2="276.8125" y2="152.5333333333333" fill="rgb(0, 0, 0)" stroke="rgb(66, 66, 66)" stroke-width="1px" opacity="0.25"></line><line x1="0" y1="140.79999999999995" x2="276.8125" y2="140.79999999999995" fill="rgb(0, 0, 0)" stroke="rgb(66, 66, 66)" stroke-width="1px" opacity="0.25"></line><line x1="0" y1="129.0666666666666" x2="276.8125" y2="129.0666666666666" fill="rgb(0, 0, 0)" stroke="rgb(66, 66, 66)" stroke-width="1px" opacity="0.25"></line><line x1="0" y1="117.33333333333324" x2="276.8125" y2="117.33333333333324" fill="rgb(0, 0, 0)" stroke="rgb(66, 66, 66)" stroke-width="1px" opacity="0.25"></line><line x1="0" y1="105.5999999999999" x2="276.8125" y2="105.5999999999999" fill="rgb(0, 0, 0)" stroke="rgb(66, 66, 66)" stroke-width="1px" opacity="0.25"></line><line x1="0" y1="93.86666666666655" x2="276.8125" y2="93.86666666666655" fill="rgb(0, 0, 0)" stroke="rgb(66, 66, 66)" stroke-width="1px" opacity="0.25"></line><line x1="0" y1="82.1333333333332" x2="276.8125" y2="82.1333333333332" fill="rgb(0, 0, 0)" stroke="rgb(66, 66, 66)" stroke-width="1px" opacity="0.25"></line><line x1="0" y1="70.4000000000001" x2="276.8125" y2="70.4000000000001" fill="rgb(0, 0, 0)" stroke="rgb(66, 66, 66)" stroke-width="1px" opacity="0.25"></line><line x1="0" y1="58.66666666666675" x2="276.8125" y2="58.66666666666675" fill="rgb(0, 0, 0)" stroke="rgb(66, 66, 66)" stroke-width="1px" opacity="0.25"></line><line x1="0" y1="46.9333333333334" x2="276.8125" y2="46.9333333333334" fill="rgb(0, 0, 0)" stroke="rgb(66, 66, 66)" stroke-width="1px" opacity="0.25"></line><line x1="0" y1="35.20000000000005" x2="276.8125" y2="35.20000000000005" fill="rgb(0, 0, 0)" stroke="rgb(66, 66, 66)" stroke-width="1px" opacity="0.25"></line><line x1="0" y1="23.4666666666667" x2="276.8125" y2="23.4666666666667" fill="rgb(0, 0, 0)" stroke="rgb(66, 66, 66)" stroke-width="1px" opacity="0.25"></line><line x1="0" y1="11.73333333333335" x2="276.8125" y2="11.73333333333335" fill="rgb(0, 0, 0)" stroke="rgb(66, 66, 66)" stroke-width="1px" opacity="0.25"></line><line x1="0" y1="0" x2="276.8125" y2="0" fill="rgb(0, 0, 0)" stroke="rgb(66, 66, 66)" stroke-width="1px" opacity="0.25"></line></g></g></g><g><g><line x1="0" y1="1396.2666666666676" x2="276.8125" y2="1396.2666666666676" fill="rgb(0, 0, 0)" stroke="rgb(153, 153, 153)" stroke-width="1.5px"></line></g></g><g><g><line x1="18.454166666666666" y1="0" x2="18.454166666666666" y2="176" fill="rgb(0, 0, 0)" stroke="rgb(153, 153, 153)" stroke-width="1.5px"></line></g></g><g><g><g><g><g><path stroke="rgb(255, 112, 67)" stroke-width="2px" d="M26.632130625000002,-0.454734785969535L26.920015625,8.444305564457L27.401669374999997,15.080457254826161L27.566834166666666,8.562667044378104L27.582520208333335,-3.696309288413886L27.85287375,-4.949852834393624L27.947912708333334,14.652116503265903L28.057715,9.78579057168925L28.087241666666667,-14.73911770055144L28.38989,-11.819027464224295L28.569818124999998,11.634371486210386L28.609494583333333,24.372924934655405L28.690692916666666,23.194986650230568L28.88261625,24.306898402907635L29.024713333333334,26.19714420939707L29.05331729166667,10.95342812715653L29.865300625,9.927452994455978L30.56563625,27.082019688944204L30.835067083333332,7.397230815632838L31.14140625,14.044736601361254L31.188464375000002,26.134919556848097L31.326870625,45.26748290273145L31.405300833333335,31.307898392353895L31.458817916666664,24.185346945568142L31.480962916666666,2.1278449267802255L31.665504583333334,10.88416809701896L32.077955208333336,13.460415815893642L32.175762291666665,16.672378436476325L32.278182916666665,20.057248473018692L32.37599,30.750066246897042L32.626043958333334,39.49720324097685L32.80689479166667,31.59447428833625L33.05694875,52.422040611413266L33.19720041666667,51.18681974445179L33.65117291666667,30.712456633454913L33.68715854166666,18.439867778900897L33.760975208333335,25.677073336611034L34.05901,26.232272037448528L34.193725416666666,25.367469505021084L35.34711083333333,15.433899875213147L35.73649375,27.32201452636484L35.9081175,34.393899023436084L36.151712499999995,40.97653269205653L36.616757500000006,33.57094931901005L36.91386958333333,42.37322002272102L37.09933395833333,44.804210130494674L37.19160479166667,39.60415856527606L37.26818958333333,57.239040956222816L37.29402541666666,61.892968437665985L37.87164083333334,62.6725634926125L37.94084395833334,52.02103748521602L38.187207083333334,66.58639527758784L38.331149583333335,66.8376033612142L39.16527791666667,52.845287236455015L39.705985000000005,52.05262481583124L40.35741708333333,74.61689349301447L40.550263125,72.52092812868622L41.410227291666665,73.85988109596163L41.57077854166667,83.87048249058479L41.579082916666664,72.49654344129112L41.89188104166667,65.08376550162362L42.05796854166667,51.40559438398207L42.5184,75.814938254738L42.54423583333333,78.62858453487415L42.658651666666664,87.60098250803387L42.802594166666665,80.1480107694687L42.97329520833333,81.79065847177252L43.10616520833333,63.088782696995736L43.16983208333333,60.44216081285879L43.21689020833333,64.32531805347037L43.27317541666667,52.68796284542845L43.477093958333334,77.30022542047327L43.631186250000006,83.67105281413302L43.699466666666666,93.36930201725575L43.88493104166666,77.58050922955917L43.943984375,80.60761502666779L44.14144395833333,78.24695793201634L44.279850208333336,49.93307730641015L44.41825645833334,54.3354095348877L44.723672916666665,65.65090148265142L44.75596770833334,74.24863272715601L44.94696833333334,76.81275344814256L45.12781916666666,80.22383533711469L45.34742375,79.43516240832349L45.412013333333334,67.93622216016331L46.15663895833333,67.00800364115005L46.38085708333333,80.60905185916926L46.574625833333336,90.27778320697284L46.621683958333335,78.67488790107167L47.407831458333334,68.78176440568211L47.84519520833333,87.74667257570083L47.91532104166667,73.06445516488658L47.92823895833334,65.476321210911L47.991905833333334,84.84287951853864L48.32777166666666,83.36501075148766L48.35822104166667,90.74893463285869L48.39605208333334,88.90210288583494L48.593511666666664,88.50578565728216L48.76144458333333,91.98462434847086L48.84633375,61.15898404104848L48.947831666666666,72.85065735171237L49.21818520833334,68.36312837912627L50.0809175,68.27995547799664L50.36234354166667,76.54070033757922L50.77756229166667,82.7656205606205L51.22784395833333,68.19353534092963L51.33026458333333,64.67288959648475L51.421612708333335,63.17761844213564L51.960474375,73.92481915284648L52.05828145833333,71.91663221436424L52.374770416666664,76.41173734456885L52.63405145833333,90.63169877881153L53.156304375000005,88.43726572724806L53.347305,78.87172487417445L53.55583708333333,102.93939702574166L54.060558541666666,105.21413727957248L54.075321875,107.78635854775658L54.285699375,106.61835199388831L54.389042708333335,113.69796900069497L54.74059458333333,115.49305162339886L54.829174583333334,119.16473112052374L54.83102,135.313392098421L54.95374020833333,122.51510597845362L55.140127291666666,134.07354580549656L55.201026041666665,136.47518278114967L55.30252395833334,118.07691122305172L55.54980979166667,104.06829293337525L55.553500625000005,107.07166077792868L55.81093625,95.75254704455679L55.87091229166666,104.89263804932511L56.048995,107.10424188721225L56.072062708333334,97.5948547026399L56.347029791666664,106.63276283785999L56.62015145833333,91.75668976651812L56.74010354166667,105.81440367110868L57.38230854166667,105.26777997935791L57.537323541666666,114.67194789484134L57.59729958333333,130.1147365266184L57.67019354166667,112.65642085477319L57.74862375,95.66718991520764L57.83904916666667,112.18454816136409L57.85842604166666,117.26450351433138L57.93224270833333,124.54282849206217L57.94331520833333,105.63491604868786L57.961769374999996,115.52792086130897L57.9645375,90.13021748260567L58.687018125,120.79044494268842L58.825424375000004,110.83973897082133L59.444561666666665,98.39043355176373L59.69738375,107.85165677819366L59.72137416666667,109.3625480219941L59.86439395833333,106.69786491345667L59.87546645833333,105.24670417756613L59.91422020833333,111.56577620933932L60.137515625,98.92139280893703L60.33036166666667,102.32396463230232L60.71789916666666,94.85050325040993L61.211548125,102.90278302934762L61.261374375,113.648900042218L61.355490625,123.64373008066924L61.363794999999996,124.4066091421516L61.38224916666667,116.83007551133258L61.39608979166667,132.5637268660443L61.44499333333333,117.60085676578542L61.488360625,129.10479364117688L61.51788729166667,126.22387634746667L61.745796250000005,112.72339909135748L61.798390625,90.3322547868458L62.05121270833333,99.82396997822727L62.2385225,104.53681627241808L62.243136041666666,94.53175020453162L62.379696875,110.33518334211999L62.824442291666664,116.88188454140482L62.83736020833334,105.49148993708235L63.02559270833333,113.23261124740556L63.259037916666664,96.04580210000583L63.46295645833334,99.57049334496433L63.81635375,83.77875291615828L65.41817541666667,82.36253129071069L65.45047020833333,114.27591070150982L65.93489208333334,89.95215184896561L66.498666875,89.0404781210979L66.64999104166667,98.79411271901292L66.681363125,103.21506484006665L66.72934395833333,115.44686991803755L66.94156687499999,109.69413574476778L67.196234375,112.28066764477718L67.43244770833333,112.55577709240016L67.484119375,127.36636074599994L67.51456875,136.06282039454015L68.09033875,138.25940000039608L69.128385625,139.42958673689134L69.13299916666666,125.32331356557216L69.14038083333334,122.27747263641349L69.24926041666666,135.59997723419175L69.27509624999999,115.07879086525458L69.38120770833333,108.56680434499894L69.55190875,117.50144999794999L69.557445,134.47342309935607L69.66632458333333,142.20363963435312L69.76505437499999,128.93706069304687L69.94313708333334,127.3464472312577L69.97266375,137.6358484819838L70.13782854166666,124.12616505435965L71.143580625,127.52210467226402L71.58278979166666,123.14568732321513L72.18624104166666,110.59125821912448L72.33018354166667,108.12561227196946L73.21321541666666,98.41681389638468L73.45865583333334,111.65080509401577L74.11008791666667,105.79246832659175L74.515156875,109.57129968085087L74.60373687500001,122.81040025121887L74.64987229166667,113.12783316830945L74.97743375,132.49232958034762L75.190579375,122.82392822509664L76.04685270833333,129.24995853824805L76.66414458333334,101.47229628994106L76.82469583333334,115.093296597207L77.05445020833334,108.2612428509024L77.46782354166666,112.82625620858853L78.016835,138.973218121312L78.113719375,114.01083171100339L78.59352770833334,123.8030938752348L78.81959125,123.21870385932046L79.07241333333333,116.01108539339188L79.56144875,105.70971784573574L80.19073583333333,126.9222587266473L80.28023854166666,130.0135934765485L80.3088425,124.99663936229632L80.32452854166668,129.53732952395333L80.57550520833334,124.10691268833042L80.90860291666665,123.12997870837586L81.14666166666666,141.4755810157158L81.20202416666666,120.92653574321848L81.76303083333333,131.26452292705096L82.16809979166668,122.28603065076202L82.23453479166666,119.13661126968904L82.60177270833334,112.45034912672239L82.68850729166667,133.29595776704906L82.711575,125.22677469278159L83.040981875,135.17938309366374L83.06128145833334,138.1762014300916L83.21906458333332,145.78822167185706L83.22091,137.63349473000235L83.62413354166667,112.11370035362643L83.85296520833333,122.91345194231889L84.4278125,125.99457547854226L85.0368,127.908821703141L85.43633270833332,115.49317571231438L85.77958020833334,120.3867294019979L86.27046104166668,115.64561043579499L87.44045520833333,120.20420850594293L87.84367875000001,133.92901680278447L87.86582374999999,132.5448323635717L87.87136,135.603720910656L88.00238458333334,134.91290556071635L88.24413416666667,141.22089966781004L88.59568604166667,125.39767916429284L88.86880770833334,129.00294933614092L88.98506895833333,136.08849506555174L89.208364375,129.9933615250083L89.98436208333334,144.5283997275051L90.05725604166666,131.76314538663337L90.23902958333333,149.0431559901181L90.38020395833333,151.5585673408156L90.59058145833333,157.53281557538776L90.78804104166667,154.28757122186022L90.85078520833333,147.25545349971782L91.2706175,146.99881917828122L91.54004833333333,143.76339734192956L91.55481166666667,139.435476352749L91.69229520833333,132.97438965279522L91.96633958333334,154.16726176205475L92.16195375000001,143.32318583327452L92.17671708333333,150.46306697685284L92.22746604166667,128.39976665909342L92.809695,121.31476600131529L92.95732833333334,128.54615696407046L93.60506958333333,141.22193612180172L94.39675333333334,135.3495949820004L94.47241541666668,139.33900768093213L94.52039624999999,121.30386806884567L94.65695708333334,124.12116625960175L94.689251875,138.03173458649013L94.92269708333333,141.68194928053992L95.201355,138.5009843469697L95.22811354166667,143.19622110134577L95.87585479166665,118.7228917591148L95.89707708333333,102.04336497897158L96.23663375000001,119.455921738034L96.30768229166667,122.47512123943498L96.3418225,141.67689972933803L96.54574104166667,138.2583255065482L96.63708916666667,134.88544431922847L96.82163083333333,123.17987153131563L97.23684958333334,145.94394240934906L97.28206229166666,137.25276030238038L97.327275,153.4700019252434L98.14202645833333,152.40400087031517L98.182625625,144.52701925591316L98.41145729166666,136.09969910237604L98.64859333333332,145.5144322950846L98.73163708333334,141.013024001074L98.891265625,141.09149624471996L99.11732916666666,126.70063199976171L99.47626270833332,126.37172665265632L99.5971375,128.8316761283125L99.77152937499999,130.87049167959182L99.815819375,151.95194547976027L99.851805,142.42206104599404L100.40635270833333,131.53534783365112L100.41557979166667,139.59115458235217L100.95444145833333,144.08805008990606L101.792260625,145.28300848005046L102.34680833333334,144.47196329115528L102.43631104166666,156.05368029402914L102.78140395833333,139.42053174412587L102.82846208333333,138.0873762160718L102.99270416666667,135.55513731818465L103.00562208333334,134.9686858251557L103.06928895833335,149.07171503513248L103.616455,138.83524459725126L103.68658083333332,157.39888296440526L103.80561020833333,136.510968369138L104.28634125,127.21833191666492L104.28726395833333,122.02292277467333L104.44504708333334,131.0366841661062L104.69233291666667,131.17047098957238L104.80674875,150.5698399667903L105.208126875,157.4522388596317L105.38528687499999,147.04223931187283L106.354130625,155.85410091134256L106.58757583333335,142.54039287916237L107.893208125,150.65784026037514L108.03253708333334,153.40163530856873L108.08789958333334,144.34410577824L108.25490979166668,132.43507023777738L108.30381333333334,131.63128811434598L108.68766,135.76564176509208L108.72272291666667,134.84640756068296L108.72549104166667,128.90754810900086L108.74855875,112.63717575667644L108.873124375,131.6089611343444L109.28096145833332,130.87786610117954L110.22212395833333,135.00575774664517L110.23411916666667,143.36014776322145L110.27287291666666,146.90988606190416L110.65395145833334,139.85292077288486L110.85971541666666,144.95325494582738L111.01842125,143.75289128129847L111.49822958333334,144.45450230621393L111.6108,147.6119292890018L112.427396875,153.1513439747684L112.54642625,151.41603791155376L112.74388583333334,138.08064447544788L113.16925437500001,144.89568242094572L113.17663604166665,137.88791360295818L113.39254979166667,123.82041356704843L113.78470083333333,122.03246074602328L113.85667208333332,147.2614316071192L114.00430541666667,155.57013980737042L114.160243125,153.37046380792492L114.69356854166668,144.69612024439044L114.98145354166667,139.43813886212916L116.06379041666666,142.72211651226442L116.44025541666667,138.52436141940294L116.82410208333333,138.16085973087365L117.65361687500001,144.90559848012586L117.98302375,142.3029717182839L118.174024375,144.77553465857463L118.41577395833333,145.90122330165514L118.77747562500001,140.95035983548527L119.83397666666667,144.10568607544482L120.28425833333333,137.6614896481967L120.405133125,150.5890951235536L120.43558250000001,154.0568959982857L121.31676895833334,126.96711041798183L121.65171208333334,137.70141859453906L121.70707458333334,114.86780814728343L121.76612791666666,134.37045661688575L122.02540895833333,152.6691475459778L122.13613395833335,155.42348315649306L122.209950625,140.54525668263287L122.96933958333332,132.48161222084263L123.059765,140.18045353856024L123.38086750000001,136.1576125365477L124.07751229166666,143.84469732336086L124.35617020833334,138.5049269145243L124.69111333333333,143.37202821088917L125.64703916666667,149.43018266546574L126.39535562500001,162.26049973599837L126.42672770833333,148.3428910281224L126.50515791666666,150.6706196673292L126.60111958333333,158.80691647813174L126.61034666666667,158.76866079182693L126.63802791666666,168.4881441069321L126.72383979166668,157.3515418596671L127.21841145833334,153.01714012231074L127.80248583333334,159.1234896397926L127.88922041666667,145.77111486134953L128.59509229166667,145.5042476928513L128.71873520833333,153.50237120685662L128.991856875,150.0995851590097L129.1385675,126.66344840172087L129.15056270833333,134.71500690724338L129.48827395833334,141.5240151306742L129.87396604166668,149.12217132612582L130.49494875,145.71976133245937L130.67395416666668,121.76475637629837L130.70440354166666,122.86911953215915L131.63541625,120.10671402886581L131.71107833333332,126.28379424577005L131.82180333333332,150.5620587740247L131.98235458333335,141.82557612541748L132.59134208333333,144.38441692362275L132.63101854166666,139.60068555456422L132.95950270833333,134.85677424777765L132.97611145833332,144.70086732373161L132.97703416666667,144.90389299352273L133.07484125,147.694582500215L133.52789104166666,161.96751203268104L135.485878125,153.28776491003816L135.59937125000002,146.1537640892523L135.84296625,161.4445661928093L136.355069375,154.51538941457892L136.50362541666667,154.05123763637764L137.19196583333334,152.84035826379272L137.39127083333335,159.9152324143303L137.905219375,144.4015255163064L138.34166041666668,148.8644500591329L138.52158854166666,124.09171955533645L138.82515958333335,126.88840534973818L139.00785583333334,127.9616652394654L139.11027645833335,131.48788435689534L139.42584270833333,131.04138031303052L139.86228375000002,137.066777243808L139.99146291666668,155.45739076848534L140.40668166666669,167.97681035627355L140.61798187500003,136.98085305946742L140.96584291666665,141.4892764027377L141.03596875,158.55053666683784L141.35983937499998,142.4612125030323L141.51854520833334,155.68310628599903L141.73907250000002,148.22386279503704L142.46893479166667,168.40477015098062L142.57965979166664,140.18770217847904L143.103758125,147.91805506359808L143.76164916666664,144.8686091205157L144.006166875,157.63919688506996L144.03846166666665,147.80135117954464L144.10120583333332,144.22365596326048L144.37340479166667,154.2052482654562L144.62161333333333,150.4307301360316L144.808923125,131.6803981239366L145.08481291666666,118.27012404688806L145.12725749999998,112.3774884499428L145.19830604166665,117.82998489125463L145.20291958333334,118.52850505421898L145.40591541666666,123.24443620310427L145.75193104166667,139.2333424266154L146.06288375,149.44559281762298L146.486406875,129.87740675665452L146.98097854166667,132.36027034793798L147.4709366666667,148.38355275238274L147.50323145833335,130.68450339622112L147.79480729166667,118.94380201331865L148.025484375,134.63471748728807L148.40287208333334,148.37266154706026L148.795023125,153.28909843377002L148.85684458333333,157.58514688578302L149.12812083333333,159.2721814745689L149.20101479166667,148.9742215637779L150.1329502083333,157.81022629764175L150.49188375,153.32592012103294L150.52048770833335,146.6827149551068L151.15162020833333,144.46175564135845L151.33800729166666,142.83600785258847L151.37399291666668,156.52448435022492L151.58344770833332,141.96032822406724L151.934076875,140.11854271894566L152.08355562499997,147.27572422348985L152.17951729166666,142.69558752888574L152.39450833333333,146.478475767657L152.631644375,158.25532439288608L152.814340625,149.59733281932535L153.02010458333334,148.26273176353538L153.06531729166667,152.35425425180603L153.22771395833334,161.24826991762006L153.23601833333333,158.16409114165282L153.85976916666667,165.6214096003564L153.8948320833333,160.53514190279196L153.93543125000002,161.49894524909706L153.98618020833334,157.8699823838333L154.03969729166664,156.4512716568625L154.21408916666667,160.77889857354455L154.42446666666666,165.285402091718L154.61269916666666,132.84668538751777L154.65606645833333,150.51712744344823L154.86736666666667,154.18844378377713L154.93011083333334,154.92397386303972L154.967941875,162.12514908833165L154.98362791666665,168.90671034329844L155.12018875,168.3315532648984L155.90818166666665,155.19542304780623L156.208061875,140.26636637751167L156.26434708333332,138.06694323959306L156.98867312500002,140.79004448379484L157.46755875,147.80898620362336L157.47032687499998,155.42724719092408L157.6567139583333,139.75130640374712L157.89015916666668,143.8366426068967L158.40410770833333,134.36742908627352L158.51760083333335,139.11309620501942L158.76673208333335,161.84607590335025L159.26776270833332,149.82468004721866L159.28252604166667,163.44323800066198L159.43754104166666,159.5431193140691L159.5141258333333,145.13699789052495L159.6100875,145.3471814410208L160.05852374999998,153.86584935126623L160.42852979166668,153.98629692358548L160.81329916666664,181.3575970424977L161.14362875,156.0723794738712L161.26542625,130.5368843086717L161.31617520833333,155.81271957446089L161.495180625,151.1322531232574L161.578224375,150.02224595761342L161.76553416666667,154.87604756642995L161.88364083333332,154.97734423810005L162.36437187500002,151.4698137287324L163.02503104166667,136.9963938524738L163.22433604166667,121.72559062463529L163.25201729166668,147.66522050433858L163.63955479166665,139.50616416295466L163.939435,156.86244442876233L164.07968666666667,156.91979270706204L164.390639375,142.65892376063047L164.90458791666666,139.72761601581854L164.94057354166668,154.09895323579318L166.46488770833335,151.43831847467888L166.52117291666667,143.5193210408619L167.15968708333335,138.14688986572816L167.47433062500002,154.8676450278353L168.2687825,154.18605291839378L168.79103541666666,156.00397550103608L168.85839312500002,155.42504622998374L169.21363583333334,157.78555915075088L169.3465058333333,161.60073164930472L169.48583479166666,133.33938959179636L169.655613125,146.14650037291648L169.66299479166668,164.4194305785676L169.77741062500002,164.38022341061725L170.11973541666669,178.98923695164382L170.447296875,161.74724964982744L170.88927416666667,160.02713864894616L171.067356875,155.41378339281843L171.45950791666667,129.55734047026158L172.56583520833334,137.93572223463082L172.67010125,157.00340579357808L173.14345062499999,164.04503419880305L173.2827795833333,155.9750181592557L173.29200666666665,153.21341218136087L173.72660229166667,154.1549389917593L174.03201875000002,169.25744764798523L174.151048125,162.55803772127808L174.4647689583333,150.1566321216993L174.52751312499998,151.91429034886605L174.67330104166666,152.0417002265723L174.72589541666667,157.33107238203718L174.93073666666666,148.0016286587145L174.987021875,151.47792177530684L175.05253416666667,162.2511620414212L175.17894520833332,156.00502827954028L175.31827416666664,138.3933801269037L175.59508666666665,152.0102443847361L175.6209225,149.5461568033678L175.64860375,156.9815378727109L175.68274395833333,140.54753336001988L175.80454145833335,136.69509065403273L175.81100041666664,147.80783462516698L176.04998187500001,137.67721745804295L176.515026875,147.49073863726053L176.57223479166666,137.20341087441355L176.96715395833334,147.81193360960893L177.21351708333333,138.39526319310917L177.22182145833335,136.9590518367641L177.50509291666665,125.75075214698043L177.55676458333332,133.11325605706858L177.760683125,139.2953864955695L177.85941291666668,144.27386540157337L178.402888125,138.6305562201106L178.77750770833333,142.77618692217047L178.9076095833333,142.84461494464344L179.11614166666666,146.3210457001846L179.27023395833334,144.03539332994157L179.61163604166666,150.8687952020664L179.83493145833333,160.80878180060188L179.86261270833333,161.68808239416336L180.030545625,163.87594615687556L180.11451208333332,171.14945949913826L180.35810708333332,167.73437744101963L180.81484770833333,155.16816715471595L181.248520625,144.39493064764733L181.259593125,170.30894894848421L181.3343325,164.81380625873888L181.34448229166668,162.4528575264022L181.41368541666665,157.11522200282053L181.4672025,138.0261762518226L181.76431458333332,143.47306313227847L181.79384124999999,117.38352415866396L181.876885,140.5844048597816L181.89257104166666,154.88919027915003L182.13524333333334,152.5891625643L182.31517145833334,145.38419476351493L182.86695104166665,138.66643360615572L182.92969520833333,142.16140659110224L182.99613020833334,157.34192716592437L183.19543520833332,143.0452509040468L183.41596249999998,127.63140937218058L183.69646583333335,134.3854390477875L184.12829333333332,129.36350586031324L185.24846125000002,142.69933988500298L185.887898125,146.5296824629028L186.00231395833333,146.53431908060622L186.79122958333335,137.44210491678828L186.86965979166666,128.89073251387495L186.95731708333332,131.026495375838L187.33470479166667,122.41462220108883L187.37622666666667,133.04103162143457L187.82743104166667,140.47805993151954L187.87633458333332,160.139577047779L188.22235020833335,164.41421457176625L188.44749104166667,161.88770375119768L188.47794041666666,146.4525518568384L188.49547187500002,145.4565109725013L188.50008541666668,143.90713981917781L188.56098416666669,140.9631891242541L188.74829395833333,144.82158473920074L189.22810229166666,133.57958984091619L189.29176916666668,152.23250488111233L189.50952833333332,135.02213395080275L189.824171875,124.8576596429426L190.00317729166667,122.6895526542553L190.20709583333334,131.07181936110783L190.62323729166667,129.9494866768862L190.97848,147.638625721952L191.01815645833335,139.38631019879625L191.46013375,149.5450384793039L191.52749145833332,157.14636370444424L191.67051125,149.3943740087993L191.91226083333333,121.72463059017556L191.94086479166666,134.00572928183968L192.20291395833334,144.5609017618121L192.64581395833335,143.02473746822014L192.95307583333332,153.22276952357515L193.19851625,144.89608806505657L193.55468166666665,146.65825790088292L193.710619375,142.73062531344635L193.75860020833335,127.65344944750788L193.89516104166665,131.58711931043186L194.070475625,132.47513800064715L194.14613770833333,121.56304361581783L194.21441812499998,122.37586388921714L194.30115270833335,128.2781780421891L194.30668895833335,127.54193795324309L194.80771958333332,149.77303528984942L194.86031395833334,152.5727125720217L195.01440625,153.66499961352568L195.10667708333332,150.43824598393584L195.14912166666667,151.64668945234078L195.32535895833334,140.8489690750502L195.45915166666666,154.78933302380614L195.543118125,151.98027767072904L195.57541291666666,148.7984353605755L195.61693479166667,146.50059706432702L195.68613791666667,143.50681738573158L195.80885812500003,154.683587298301L196.53872041666668,142.5591540472749L196.92072166666665,136.6008037076617L197.44205187499998,144.4565440328653L197.5334,135.61194888065674L197.555545,135.63510715391484L197.59614416666668,130.00722762242702L197.6551975,140.42218182899023L197.83697104166666,149.12865353912593L197.97168645833332,156.2014796397516L198.41458645833333,168.97715772200206L198.57882854166667,157.99233670676912L198.98758833333335,157.0771795712621L199.091854375,148.7670786167806L199.529218125,146.80863645229482L199.54121333333333,159.53843769006187L199.728523125,160.5040212728913L199.85954770833334,156.64024601568806L199.922291875,159.38138332718637L200.03763041666667,155.72977563433258L200.09207020833333,158.8479693438157L200.30060229166668,151.66327745589888L200.55250166666664,159.95002702041435L200.61801395833334,156.0871870293058L200.80440104166667,161.20162211341687L201.69204645833332,147.49411942690435L201.89873312499998,162.89375823654632L202.04267562500002,162.75068833222718L202.21614479166666,156.48926350389365L202.33332875000002,173.2528960743416L202.34809208333334,161.82278419408408L202.78084229166666,150.7439885096144L202.88326291666667,153.6177021064198L203.04842770833332,161.75048434165154L203.25326895833334,135.87431973910554L203.58083041666669,148.34902787861944L203.90193291666665,130.1500097854398L204.04679812499998,126.73625485401132L204.37435958333336,130.29777362367L204.41864958333332,139.70339724711866L204.473089375,160.15454119657852L204.48323916666666,157.92433747022565L204.62718166666667,157.4579549398176L204.65855375,155.84458355145557L204.661321875,149.9291119879696L204.74713375,155.88582575397967L205.47884145833333,135.74574777172387L205.49360479166666,140.49364576589895L206.94133416666665,161.0084713950861L207.39992020833336,144.83663862318443L207.70718208333332,141.9190766797701L207.80129833333334,146.85756539262758L207.88711020833333,145.54717025771203L208.27741583333335,135.38255589811698L208.57637333333335,148.1625663757843L208.5929820833333,142.39052953087435L208.65572625000001,146.41483590700122L209.19643333333335,159.61535926718258L209.33760770833334,162.46922125692413L209.74452208333335,163.57035274113372L209.94382708333333,154.52350701414647L210.21971687500002,152.948152263501L210.52605604166666,146.05758622300954L210.57865041666668,149.91420322306354L210.61371333333335,135.11894592472356L210.64416270833334,144.8708147797691L210.70782958333334,151.2856211920802L210.87760791666665,147.5118040303522L211.19963312500002,140.5966500858546L211.43307833333333,133.72144789656502L212.245984375,148.77213835056943L212.28104729166665,164.1594658716698L212.44067583333333,165.82186523263735L212.7866914583333,154.30493615618408L212.85220375,171.7887199538018L213.05704500000002,166.4669378235181L213.73800375000002,147.35545729046504L213.857033125,167.81658817636233L213.93546333333333,173.13915497287448L214.09878270833335,151.8852666653652L214.39497208333336,145.00941378339883L214.621035625,142.1276459507033L214.7050020833333,156.20023116579975L214.77881875,144.03008397128966L214.96520583333333,141.5620359784768L215.11283916666665,162.57350149431272L215.56496625,155.08353835589747L215.64247375000002,141.3971573152965L215.66554145833334,124.83797761671707L216.259765625,117.81326691671013L216.47937020833334,131.8994913186458L216.5485733333333,151.81532202914312L216.81431333333333,152.0577942917045L216.990550625,148.8671010948795L217.0080820833333,157.84537519957084L217.02653625000002,153.07313962983375L217.11603895833332,147.2159730112987L217.34210249999998,150.05265570619318L217.37901083333333,149.65848408940607L217.61522416666668,148.328571898956L218.45673416666668,151.9218294186706L218.61451729166666,155.69174165348102L218.81659041666666,141.10848432314341L218.92085645833333,142.6887657240944L219.08140770833336,138.00623795008153L219.30931666666666,145.80479928860368L219.72269,149.4136897131361L219.85371458333333,162.3621660576994L219.89615916666668,143.78508588950226L220.30768708333332,126.24992177295917L220.47192916666665,135.5763015338276L220.53005979166667,150.20138557524427L220.6241760416667,161.63624638420907L220.68138395833333,168.65980630220514L220.74874166666666,169.21729043822415L221.192564375,163.27330801944487L221.23316354166667,159.63563967820343L221.32451166666667,176.00641900386208L221.39925104166664,179.23922595472632L221.41309166666665,159.56814657543987L221.513666875,144.86029671805042L221.54596166666667,150.49943873232772L221.93349916666668,141.6932826241622L222.24445187499998,142.15039299572135L222.66705229166666,159.41913553701605L222.72979645833334,149.0190336089934L222.79069520833335,159.84562284280491L222.85713020833333,148.0545127844591L222.91064729166666,146.83210098122245L223.06566229166665,141.0522315766892L223.28249875,151.45583093006294L223.64235499999998,159.73234824879285L223.64696854166667,171.0220501439372L223.98375708333333,166.71334666351086L224.182139375,169.78237567388788L224.348226875,148.72782750394222L224.42112083333333,151.538056162196L224.93876020833335,162.15425215434897L224.99596812500002,155.4946474433254L225.15282854166665,137.6883479142373L225.23587229166668,146.82407198096416L225.31983875,149.42206831064894L225.61418270833335,157.31528790207952L225.80426062499998,160.80803524938585L226.15765791666666,148.60510475965745L226.51566875,152.716334950521L226.59225354166665,161.10699782903646L226.79617208333335,155.81339771272127L226.82569875000002,159.49343881480715L227.11727458333334,162.9528723709155L227.25937166666665,159.14578612599996L227.46974916666665,161.1073280395322L227.88773604166667,149.34573593504746L227.974470625,156.24405716161442L227.97816145833335,144.53082618336182L228.05382354166667,162.52748476437915L228.56223583333332,175.3011472306978L228.82797583333334,186.73870591654378L229.37883270833333,161.96051948905392L229.41758645833332,155.81699121817195L229.44342229166668,148.3466589643016L229.66118145833332,131.23377316992222L230.08839541666666,126.57469444394562L230.094854375,140.5401928463802L230.29323666666664,161.4538902846511L230.33014500000002,149.2080210197491L231.44293125,142.4865116271491L232.09805416666669,142.32308739621146L232.591703125,136.27005645790922L232.968168125,158.0838504844462L233.09273375,157.0097276083761L233.61683208333332,142.7119335702341L233.687880625,145.8140432801611L234.04127791666667,161.71725043098724L234.20090645833332,144.38652966126162L234.73054104166667,145.03128974499916L234.86802458333332,161.96212162531978L235.04795270833333,136.94773358717103L235.38012770833333,121.13629009533636L236.168120625,130.49614437783987L236.21333333333334,149.3482782608186L236.68760541666666,141.57555895681665L236.78633520833333,159.81617338678538L236.854615625,128.8101737993237L237.103746875,126.21271316631277L237.153573125,137.67471916769142L237.37963666666667,158.56930252926082L237.726575,145.23925668845482L237.90927125,149.8819304779166L238.02645520833335,146.23486670146366L238.97038583333335,164.5824458997847L239.15308208333335,165.7794038598577L239.24535291666666,164.52207916487296L239.2721114583333,149.52908266331175L239.321015,135.7761182177788L239.40405875,134.17129186165675L239.71593416666667,133.3581712351582L239.85987666666665,139.11861530619902L239.93092520833332,148.77351557857622L240.3083129166667,135.20064153301803L240.42457416666667,136.288540437389L240.45594624999998,140.2330888620429L240.8379475,148.43109131364497L240.8444064583333,144.05118672991887L241.11106916666665,140.7530881365841L241.29745625,151.07123622342172L241.37496375,156.35015811588917L241.68130291666668,158.35819423476784L241.77265104166665,153.58806575147264L241.79387333333332,130.59524118428214L242.689823125,126.99265150581661L242.92050020833335,124.23473844580752L243.26005687499998,134.02097978623453L243.431680625,147.05261635481344L243.53686937499998,166.43080748378642L243.686348125,147.86182474092288L243.71772020833333,142.03373363849894L243.99914625,135.35528921467485L244.59521583333333,151.73409699071897L244.68195041666667,132.94492149195744L244.70317270833334,130.06050514126832L244.97444895833334,143.63204547571146L245.11285520833331,143.46331399603886L246.39449708333333,148.40362987711552L246.81156124999998,155.45214456038397L246.938895,171.91252066363933L246.95089020833333,153.50305601797515L246.97857145833333,153.2287700528425L247.116055,147.21518927779914L247.29967395833333,148.6421614589319L247.48790645833333,153.33716617874467L248.08674416666665,142.8591454103718L248.27959020833333,153.36002215833236L249.04820625000002,176.87501557364527L249.12571375,165.6237770443824L249.200453125,159.27318041119966L249.32501875,143.3795959094802L249.53170541666665,150.83836911795387L250.59651083333333,151.5224800889365L250.81519270833334,152.0723713134531L250.949908125,145.5029123307152L251.25717,150.9709455999267L251.39557625,148.3084265315054L251.514605625,153.5364003199449L251.95750562499998,152.7927931542065L252.11713416666666,143.23322553445104L252.37918333333332,141.3252284928711L252.38471958333332,146.27085893817042L252.38564229166667,132.6798265608188L252.43177770833333,147.42245953512423L252.56464770833333,131.07906430343135L252.765798125,132.3429632809521L252.81470166666668,146.2019598126469L253.06198750000001,163.2448815353746L253.57132249999998,156.05380005566485L253.76324583333331,144.02905798750038L253.94225125,137.3800798527216L254.52909375,134.47330405583864L254.64627770833332,135.8495083530996L254.97660729166668,147.39710898321408L255.043965,148.29756775809253L255.1980572916667,131.33546265192587L255.722155625,128.88681185222333L255.78120895833334,136.02272899772726L255.88362958333332,138.23003001745147L256.04325812499997,125.62151369731983L256.6273325,136.68447600810552L257.04993291666665,131.45605262960282L257.11175437500003,134.801349269819L257.14220375,127.99970970837578L257.2473925,138.60570208641872L257.47899229166666,132.45145998883044L257.5980216666667,133.8677760177124L257.64323437499996,134.7695981057448L257.9135879166667,148.92535098584275L258.0160085416667,157.05854779039896L258.08797979166667,157.12786813550235L258.108279375,151.67214588943938L258.324193125,152.42826372995282L258.45890854166663,159.14177635320607L258.634223125,162.08128631159815L258.6988127083333,160.6569124526491L258.91934,160.25105420987094L258.97101166666664,158.15344889148253L259.481269375,151.215345702077L260.01644020833334,146.65340033303008L260.0634983333333,158.08204528608107" style="fill: none;" fill="none"></path></g></g></g></g><g opacity="0.2"><g><g><g><path stroke="rgb(255, 112, 67)" stroke-width="2px" d="M25.734335416666667,-38.434578959147224L25.95394,42.56948750813799L26.173544583333335,-19.145498657226625L26.421753125,3.358684794108017L26.602603958333333,-2.9172424316406875L26.632130625000002,4.157774861653577L26.920015625,21.79286600748692L27.401669374999997,25.034684753417928L27.566834166666666,-1.2140182495117813L27.85287375,-6.830168151855531L27.947912708333334,44.05507049560543L28.057715,2.4863016764322357L28.087241666666667,-51.52648010253917L28.38989,-7.438892110188878L28.569818124999998,46.81446990966793L28.609494583333333,43.480755106608036L28.690692916666666,21.42807922363277L28.88261625,25.974766031900984L29.024713333333334,29.032512919108036L29.05331729166667,-11.912145996093813L29.865300625,8.388490295410094L30.56563625,52.813869730631474L30.835067083333332,-22.129952494303474L31.14140625,24.01599527994786L31.188464375000002,44.27019399007158L31.326870625,73.96632792154946L31.405300833333335,10.368521626790315L31.458817916666664,13.501519775390562L31.480962916666666,-30.958408101399815L31.665504583333334,24.018652852376253L32.077955208333336,17.32478739420567L32.175762291666665,21.490322367350203L32.278182916666665,25.13455352783199L32.37599,46.7892929077148L32.626043958333334,52.61790873209632L32.80689479166667,19.74038085937496L33.05694875,83.66339009602864L33.19720041666667,49.33398844401038L33.65117291666667,0.0009119669595794022L33.68715854166666,0.030984497070249972L33.760975208333335,36.53288167317703L34.05901,27.065070088704378L34.193725416666666,24.07026570638016L35.34711083333333,0.533545430501233L35.73649375,45.15418650309241L35.9081175,45.00172576904293L36.151712499999995,50.85048319498694L36.616757500000006,22.462574259440046L36.91386958333333,55.576626078287724L37.09933395833333,48.45069529215491L37.19160479166667,31.80408121744788L37.26818958333333,83.69136454264321L37.29402541666666,68.87385965983071L37.87164083333334,63.84195607503252L37.94084395833334,36.04374847412105L38.187207083333334,88.43443196614582L38.331149583333335,67.21441548665362L39.16527791666667,31.856813049316365L39.705985000000005,50.8636311848958L40.35741708333333,108.46329650878909L40.550263125,69.376980082194L41.410227291666665,75.86831054687498L41.57077854166667,98.88638458251953L41.579082916666664,55.435634867350224L41.89188104166667,53.964598592122364L42.05796854166667,30.88833770751949L42.5184,112.42895406087239L42.54423583333333,82.84905395507812L42.658651666666664,101.05957946777343L42.802594166666665,68.96855316162107L42.97329520833333,84.25463002522785L43.10616520833333,35.03596903483069L43.16983208333333,56.472227986653614L43.21689020833333,70.150053914388L43.27317541666667,35.23193003336585L43.477093958333334,114.21861928304037L43.631186250000006,93.22729390462239L43.699466666666666,107.9166758219401L43.88493104166666,53.897320048014286L43.943984375,85.14827372233071L44.14144395833333,74.70597229003904L44.279850208333336,7.462256368001253L44.41825645833334,60.93890787760415L44.723672916666665,82.62413940429687L44.75596770833334,87.14522959391275L44.94696833333334,80.65893452962239L45.12781916666666,85.3404581705729L45.34742375,78.2521530151367L45.412013333333334,50.687811787923145L46.15663895833333,65.61567586263018L46.38085708333333,101.01062418619792L46.574625833333336,104.78088022867838L46.621683958333335,61.27054494222002L47.407831458333334,53.942079162597636L47.84519520833333,116.19403483072917L47.91532104166667,51.04112904866533L47.92823895833334,54.09412027994788L47.991905833333334,113.89271697998049L48.32777166666666,81.14820760091145L48.35822104166667,101.82482045491535L48.39605208333334,86.13185526529946L48.593511666666664,87.91130981445312L48.76144458333333,97.2028823852539L48.84633375,14.920523579915315L48.947831666666666,90.38816731770832L49.21818520833334,61.631834920247364L50.0809175,68.15519612630206L50.36234354166667,88.9318176269531L50.77756229166667,92.10300089518229L51.22784395833333,46.33540751139319L51.33026458333333,59.39192097981768L51.421612708333335,60.934711710611964L51.960474375,90.04562021891276L52.05828145833333,68.9043518066406L52.374770416666664,83.15439503987629L52.63405145833333,111.9616409301758L53.156304375000005,85.14561614990234L53.347305,64.52341359456378L53.55583708333333,139.04090525309246L54.060558541666666,108.62624766031901L54.075321875,111.64469045003254L54.285699375,104.86634216308593L54.389042708333335,124.31739451090495L54.74059458333333,118.18567555745443L54.829174583333334,124.67225036621096L54.83102,159.53638356526696L54.95374020833333,103.3176767985026L55.140127291666666,151.4112055460612L55.201026041666665,140.07763824462893L55.30252395833334,90.47950388590495L55.54980979166667,83.05536549886067L55.553500625000005,111.5767125447591L55.81093625,78.77387644449868L55.87091229166666,118.60277455647787L56.048995,110.42164764404299L56.072062708333334,83.33077392578124L56.347029791666664,120.1896250406901L56.62015145833333,69.44258015950518L56.74010354166667,126.90097452799479L57.38230854166667,104.44784444173176L57.537323541666666,128.77819976806643L57.59729958333333,153.27891947428387L57.67019354166667,86.4689473470052L57.74862375,70.18334350585936L57.83904916666667,136.960585530599L57.85842604166666,124.88443654378256L57.93224270833333,135.46031595865887L57.94331520833333,77.27304738362629L57.961769374999996,130.3674280802409L57.9645375,52.03366241455076L58.687018125,166.78078613281252L58.825424375000004,95.91368001302082L59.444561666666665,79.71647542317707L59.69738375,122.04349161783854L59.72137416666667,111.62888488769534L59.86439395833333,102.70084025065104L59.87546645833333,103.06996307373046L59.91422020833333,121.0443842569987L60.137515625,79.95481770833332L60.33036166666667,107.42782236735026L60.71789916666666,83.6403111775716L61.211548125,114.98120269775393L61.261374375,129.76807556152346L61.355490625,138.63597513834637L61.363794999999996,125.55092773437502L61.38224916666667,105.46527506510417L61.39608979166667,156.164203898112L61.44499333333333,95.15655161539713L61.488360625,146.36069895426434L61.51788729166667,121.90250040690104L61.745796250000005,92.47268320719401L61.798390625,56.745538330078105L62.05121270833333,114.06154276529948L62.2385225,111.60608571370442L62.243136041666666,79.52415110270181L62.379696875,134.04033304850262L62.824442291666664,126.70193634033205L62.83736020833334,88.40589803059895L63.02559270833333,124.84429321289065L63.259037916666664,70.26558837890623L63.46295645833334,104.85753021240234L63.81635375,60.0911422729492L65.41817541666667,80.23819885253904L65.45047020833333,162.14597981770837L65.93489208333334,53.46651357014971L66.498666875,87.67296752929687L66.64999104166667,113.42456461588542L66.681363125,109.84649302164713L66.72934395833333,133.79457753499352L66.94156687499999,101.06503448486328L67.196234375,116.16046549479167L67.43244770833333,112.96844126383463L67.484119375,149.58223622639977L67.51456875,149.10750986735027L68.09033875,141.5542694091797L69.128385625,141.18486684163415L69.13299916666666,104.16390380859374L69.14038083333334,117.7087112426758L69.24926041666666,155.5837341308594L69.27509624999999,84.29701131184895L69.38120770833333,98.79882456461588L69.55190875,130.90341847737633L69.557445,159.93138275146487L69.66632458333333,153.798964436849L69.76505437499999,109.03719228108723L69.94313708333334,124.96052703857424L69.97266375,153.06995035807293L70.13782854166666,103.86163991292317L71.143580625,132.61601409912112L71.58278979166666,116.58106129964193L72.18624104166666,91.75961456298828L72.33018354166667,104.42714335123698L73.21321541666666,83.8536163330078L73.45865583333334,131.50179189046227L74.11008791666667,97.00496317545573L74.515156875,115.23954671223959L74.60373687500001,142.66905110677087L74.64987229166667,98.6039825439453L74.97743375,161.539074198405L75.190579375,108.32132619222004L76.04685270833333,138.88900400797527L76.66414458333334,59.80580291748045L76.82469583333334,135.5247970581055L77.05445020833334,98.0131622314453L77.46782354166666,119.67377624511721L78.016835,178.19366099039718L78.113719375,76.56725209554035L78.59352770833334,138.49148712158205L78.81959125,122.34211883544924L79.07241333333333,105.1996576944987L79.56144875,90.25766652425129L80.19073583333333,158.74107004801436L80.28023854166666,134.65059560139977L80.3088425,117.47120819091799L80.32452854166668,136.34836476643883L80.57550520833334,115.96128743489584L80.90860291666665,121.66457773844401L81.14666166666666,168.9939844767253L81.20202416666666,90.10296783447264L81.76303083333333,146.7715037027995L82.16809979166668,108.81829223632815L82.23453479166666,114.41248219807943L82.60177270833334,102.42095591227213L82.68850729166667,164.56437072753909L82.711575,113.12300008138021L83.040981875,150.108295694987L83.06128145833334,142.6714289347331L83.21906458333332,157.20625203450524L83.22091,125.40140431722006L83.62413354166667,73.83400878906248L83.85296520833333,139.1130793253581L84.4278125,130.61626078287762L85.0368,130.78019104003909L85.43633270833332,96.86970672607421L85.77958020833334,127.72705993652346L86.27046104166668,108.53393198649088L87.44045520833333,127.04210561116537L87.84367875000001,154.5162292480469L87.86582374999999,130.46855570475262L87.87136,140.19205373128258L88.00238458333334,133.8766825358073L88.24413416666667,150.68289082845055L88.59568604166667,101.66284840901692L88.86880770833334,134.41085459391277L88.98506895833333,146.716813659668L89.208364375,120.85066121419271L89.98436208333334,166.33095703125002L90.05725604166666,112.61526387532551L90.23902958333333,174.9631718953451L90.38020395833333,155.331684366862L90.59058145833333,166.49418792724612L90.78804104166667,149.41970469156902L90.85078520833333,136.70727691650393L91.2706175,146.61386769612633L91.54004833333333,138.91026458740237L91.55481166666667,132.94359486897787L91.69229520833333,123.28275960286459L91.96633958333334,185.95656992594405L92.16195375000001,127.05707194010417L92.17671708333333,161.17288869222008L92.22746604166667,95.30481618245442L92.809695,110.68726501464846L92.95732833333334,139.39324340820315L93.60506958333333,160.23560485839846L94.39675333333334,126.54108327229818L94.47241541666668,145.32312672932946L94.52039624999999,94.25115865071614L94.65695708333334,128.34711354573568L94.689251875,158.89758707682296L94.92269708333333,147.15727132161462L95.201355,133.72953694661462L95.22811354166667,150.23907623291018L95.87585479166665,82.01289774576821L95.89707708333333,77.0240748087565L96.23663375000001,145.57475687662762L96.30768229166667,127.00392049153646L96.3418225,170.47956746419274L96.54574104166667,133.1304641723633L96.63708916666667,129.8261225382487L96.82163083333333,105.6215123494466L97.23684958333334,180.09004872639977L97.28206229166666,124.21598714192709L97.327275,177.7958643595378L98.14202645833333,150.8049992879232L98.182625625,132.7115468343099L98.41145729166666,123.45871887207034L98.64859333333332,159.63653208414718L98.73163708333334,134.26091156005862L98.891265625,141.20920461018883L99.11732916666666,105.11433563232421L99.47626270833332,125.8783686319987L99.5971375,132.5216003417969L99.77152937499999,133.92871500651043L99.815819375,183.57412618001305L99.851805,128.12723439534506L100.40635270833333,115.20527801513674L100.41557979166667,151.67486470540368L100.95444145833333,150.833393351237L101.792260625,147.07544606526696L102.34680833333334,143.25539550781252L102.43631104166666,173.42625579833987L102.78140395833333,114.47080891927084L102.82846208333333,136.0876429239909L102.99270416666667,131.75677897135418L103.00562208333334,134.089008585612L103.06928895833335,170.22625885009768L103.616455,123.48053894042971L103.68658083333332,185.24434051513677L103.80561020833333,105.17909647623698L104.28634125,113.27937723795573L104.28726395833333,114.2298090616862L104.44504708333334,144.55732625325524L104.69233291666667,131.37115122477215L104.80674875,179.66889343261724L105.208126875,167.77583719889327L105.38528687499999,131.4272399902344L106.354130625,169.0718933105469L106.58757583333335,122.56983083089193L107.893208125,162.83401133219405L108.03253708333334,157.5173278808594L108.08789958333334,130.75781148274743L108.25490979166668,114.57151692708334L108.30381333333334,130.42561492919924L108.68766,141.96717224121096L108.72272291666667,133.46755625406902L108.72549104166667,119.99925893147787L108.74855875,88.2316172281901L108.873124375,160.0666392008464L109.28096145833332,129.7812235514323L110.22212395833333,141.19759521484377L110.23411916666667,155.89173278808596L110.27287291666666,152.2344935099284L110.65395145833334,129.2674728393555L110.85971541666666,152.6037562052409L111.01842125,141.95234578450524L111.49822958333334,145.50691884358727L111.6108,152.34806976318362L112.427396875,161.460466003418L112.54642625,148.8130788167318L112.74388583333334,118.07755432128909L113.16925437500001,155.11823933919274L113.17663604166665,127.37626037597659L113.39254979166667,102.71916351318359L113.78470083333333,119.35053151448568L113.85667208333332,185.10488789876305L114.00430541666667,168.03320210774743L114.160243125,150.07094980875652L114.69356854166668,131.68460489908855L114.98145354166667,131.551166788737L116.06379041666666,147.64808298746746L116.44025541666667,132.22772878011068L116.82410208333333,137.61560719807946L117.65361687500001,155.02270660400393L117.98302375,138.39903157552087L118.174024375,148.48437906901043L118.41577395833333,147.58975626627605L118.77747562500001,133.5240646362305L119.83397666666667,148.83867543538415L120.28425833333333,127.99519500732424L120.405133125,169.98050333658858L120.43558250000001,159.25859731038415L121.31676895833334,86.33243204752603L121.65171208333334,153.80288085937502L121.70707458333334,80.61739247639973L121.76612791666666,163.62442932128909L122.02540895833333,180.11718393961593L122.13613395833335,159.55498657226565L122.209950625,118.22791697184245L122.96933958333332,120.38614552815756L123.059765,151.72871551513674L123.38086750000001,130.12335103352868L124.07751229166666,155.37532450358074L124.35617020833334,130.49527130126955L124.69111333333333,150.6726801554362L125.64703916666667,158.51741434733077L126.39535562500001,181.50597534179693L126.42672770833333,127.46647796630862L126.50515791666666,154.16221262613934L126.60111958333333,171.01136169433596L126.61034666666667,158.71127726236983L126.63802791666666,183.0673690795899L126.72383979166668,140.64663848876955L127.21841145833334,146.51553751627605L127.80248583333334,168.28301391601565L127.88922041666667,125.7425526936849L128.59509229166667,145.10394694010418L128.71873520833333,165.49955647786462L128.991856875,144.99540608723962L129.1385675,91.50924326578776L129.15056270833333,146.79234466552737L129.48827395833334,151.73752746582034L129.87396604166668,160.51940561930343L130.49494875,140.61614634195965L130.67395416666668,85.83224894205728L130.70440354166666,124.52566426595052L131.63541625,115.9631057739258L131.71107833333332,135.54941457112633L131.82180333333332,186.9794555664063L131.98235458333335,128.72085215250652L132.59134208333333,148.22267812093102L132.63101854166666,132.42508850097659L132.95950270833333,127.74090728759768L132.97611145833332,159.4670069376628L132.97703416666667,145.20843149820965L133.07484125,151.88061676025393L133.52789104166666,183.37690633138024L135.485878125,140.26814422607424L135.59937125000002,135.45276285807293L135.84296625,184.38076934814458L136.355069375,144.1216242472331L136.50362541666667,153.35500996907555L137.19196583333334,151.0240392049154L137.39127083333335,170.52754364013674L137.905219375,121.13096516927084L138.34166041666668,155.55883687337243L138.52158854166666,86.93262379964192L138.82515958333335,131.08343404134118L139.00785583333334,129.57155507405602L139.11027645833335,136.7772130330404L139.42584270833333,130.3716242472331L139.86228375000002,146.104872639974L139.99146291666668,183.04331105550133L140.40668166666669,186.75593973795577L140.61798187500003,90.48691711425779L140.96584291666665,148.25191141764324L141.03596875,184.14242706298833L141.35983937499998,118.32722625732424L141.51854520833334,175.51594696044924L141.73907250000002,137.03499755859377L142.46893479166667,198.6761311848959L142.57965979166664,97.86210021972656L143.103758125,159.51358439127608L143.76164916666664,140.29444020589196L144.006166875,176.79507853190108L144.03846166666665,133.04458262125652L144.10120583333332,138.85711313883465L144.37340479166667,169.17763671875002L144.62161333333333,144.76895294189455L144.808923125,103.55490010579426L145.08481291666666,98.1547129313151L145.12725749999998,103.53853505452473L145.19830604166665,126.00872955322268L145.20291958333334,119.57628529866537L145.40591541666666,130.3183329264323L145.75193104166667,163.21670176188155L146.06288375,164.76396840413415L146.486406875,100.52512766520182L146.98097854166667,136.0845657348633L147.4709366666667,172.41847635904952L147.50323145833335,104.13592936197917L147.79480729166667,101.33274993896484L148.025484375,158.1710906982422L148.40287208333334,168.97957763671877L148.795023125,160.66375376383468L148.85684458333333,164.02921956380212L149.12812083333333,161.80273335774743L149.20101479166667,133.52728169759118L150.1329502083333,171.06423339843752L150.49188375,146.5994608561198L150.52048770833335,136.71790720621746L151.15162020833333,141.1303166707357L151.33800729166666,140.39738616943362L151.37399291666668,177.05719909667974L151.58344770833332,120.11409403483073L151.934076875,137.35586446126305L152.08355562499997,158.01149648030602L152.17951729166666,135.82538248697918L152.39450833333333,152.15280812581383L152.631644375,175.9205973307292L152.814340625,136.6103454589844L153.02010458333334,146.26083017985027L153.06531729166667,158.49153798421227L153.22771395833334,174.5892934163412L153.23601833333333,153.53782297770184L153.85976916666667,176.8073872884115L153.8948320833333,152.90574035644534L153.93543125000002,162.9446502685547L153.98618020833334,152.42653808593752L154.03969729166664,154.32320556640627L154.21408916666667,167.27033894856774L154.42446666666666,172.04515736897793L154.61269916666666,84.18861033121743L154.65606645833333,177.0227905273438L154.86736666666667,159.69541829427087L154.93011083333334,156.02726898193362L154.967941875,172.92691192626955L154.98362791666665,179.07905222574874L155.12018875,167.4688176472982L155.90818166666665,135.491227722168L156.208061875,117.87278137207034L156.26434708333332,134.76780853271487L156.98867312500002,144.87469635009768L157.46755875,158.33739878336593L157.47032687499998,166.85463867187502L157.6567139583333,116.23739522298177L157.89015916666668,149.96464691162112L158.40410770833333,120.16360880533854L158.51760083333335,146.23159688313805L158.76673208333335,195.9455454508464L159.26776270833332,131.79258626302087L159.28252604166667,183.87107493082686L159.43754104166666,153.6929412841797L159.5141258333333,123.52781575520834L159.6100875,145.66245676676434L160.05852374999998,166.64385121663415L160.42852979166668,154.16696828206383L160.81329916666664,222.41454722086596L161.14362875,118.144553120931L161.26542625,92.23364156087239L161.31617520833333,193.72647247314458L161.495180625,144.11155344645184L161.578224375,148.35723520914715L161.76553416666667,162.156749979655L161.88364083333332,155.1292892456055L162.36437187500002,146.20851796468102L163.02503104166667,115.28626403808596L163.22433604166667,98.8193857828776L163.25201729166668,186.57466532389327L163.63955479166665,127.26757965087893L163.939435,182.896864827474L164.07968666666667,157.00581512451174L164.390639375,121.26762034098307L164.90458791666666,135.33065439860027L164.94057354166668,175.65595906575527L166.46488770833335,147.44736633300784L166.52117291666667,131.64082489013674L167.15968708333335,130.08824310302737L167.47433062500002,179.94877777099614L168.2687825,153.1636647542318L168.79103541666666,158.73085937500002L168.85839312500002,154.55665232340496L169.21363583333334,161.32632853190108L169.3465058333333,167.32349039713546L169.48583479166666,90.94737650553385L169.655613125,165.3571665445964L169.66299479166668,191.82882588704433L169.77741062500002,164.32141265869143L170.11973541666669,200.90275726318364L170.447296875,135.8842686971029L170.88927416666667,157.44697214762374L171.067356875,148.49375050862633L171.45950791666667,90.77267608642578L172.56583520833334,150.50329488118493L172.67010125,185.60493113199874L173.14345062499999,174.60747680664065L173.2827795833333,143.86999409993493L173.29200666666665,149.07100321451824L173.72660229166667,155.5672292073568L174.03201875000002,191.91121063232427L174.151048125,152.50892283121746L174.4647689583333,131.55452372233074L174.52751312499998,154.5507776896159L174.67330104166666,152.23281504313152L174.72589541666667,165.2651306152344L174.93073666666666,134.0074630737305L174.987021875,156.69236145019534L175.05253416666667,178.4110224405925L175.17894520833332,146.63582763671877L175.31827416666664,111.97590789794924L175.59508666666665,172.4355407714844L175.6209225,145.85002543131512L175.64860375,168.1346094767253L175.68274395833333,115.89652659098307L175.80454145833335,130.91642659505212L175.81100041666664,164.47695058186852L176.04998187500001,122.48129170735677L176.515026875,162.21102040608727L176.57223479166666,121.77241923014323L176.96715395833334,163.72471771240237L177.21351708333333,124.2702575683594L177.22182145833335,134.80473480224612L177.50509291666665,108.93830261230471L177.55676458333332,144.15701192220055L177.760683125,148.56858215332034L177.85941291666668,151.74158376057946L178.402888125,130.16559244791668L178.77750770833333,148.99463297526043L178.9076095833333,142.9472569783529L179.11614166666666,151.53569183349612L179.27023395833334,140.60691477457684L179.61163604166666,161.11889801025393L179.83493145833333,175.718761698405L179.86261270833333,163.00703328450524L180.030545625,167.15774180094405L180.11451208333332,182.05972951253258L180.35810708333332,162.61175435384118L180.81484770833333,136.31885172526043L181.248520625,128.23507588704427L181.259593125,209.17997639973964L181.3343325,156.57109222412112L181.34448229166668,158.91143442789718L181.41368541666665,149.10876871744793L181.4672025,109.39260762532551L181.76431458333332,151.64339345296227L181.79384124999999,78.24921569824217L181.876885,175.3857259114584L181.89257104166666,176.34636840820318L182.13524333333334,149.13912099202477L182.31517145833334,134.57674306233727L182.86695104166665,128.5897918701172L182.92969520833333,147.40386606852215L182.99613020833334,180.11270802815758L183.19543520833332,121.60023651123049L183.41596249999998,104.51064707438151L183.69646583333335,144.51648356119793L184.12829333333332,121.83060607910159L185.24846125000002,162.7030909220378L185.887898125,152.27519632975262L186.00231395833333,146.5412740071615L186.79122958333335,123.8037836710612L186.86965979166666,116.06367390950521L186.95731708333332,134.23013966878258L187.33470479166667,109.49681243896487L187.37622666666667,148.98064575195315L187.82743104166667,151.63360239664715L187.87633458333332,189.63185272216802L188.22235020833335,170.82617085774743L188.44749104166667,158.09793752034508L188.47794041666666,123.29982401529948L188.49547187500002,143.96244964599612L188.50008541666668,141.58308308919274L188.56098416666669,136.54726308186852L188.74829395833333,150.60917816162112L189.22810229166666,116.71659749348959L189.29176916666668,180.2118774414063L189.50952833333332,109.20657755533854L189.824171875,109.61094818115237L190.00317729166667,119.43739217122396L190.20709583333334,143.64521942138674L190.62323729166667,128.2659876505534L190.97848,174.1723342895508L191.01815645833335,127.00783691406252L191.46013375,164.78313090006515L191.52749145833332,168.548351542155L191.67051125,137.76638946533205L191.91226083333333,80.22001546223957L191.94086479166666,152.42737731933596L192.20291395833334,160.39366048177087L192.64581395833335,140.72049102783205L192.95307583333332,168.51981760660811L193.19851625,132.40606587727865L193.55468166666665,149.30151265462243L193.710619375,136.83917643229168L193.75860020833335,105.03768564860026L193.89516104166665,137.48762410481774L194.070475625,133.80716603597008L194.14613770833333,105.19490203857421L194.21441812499998,123.59509429931643L194.30115270833335,137.13164927164715L194.30668895833335,126.43757781982424L194.80771958333332,183.11968129475915L194.86031395833334,156.77222849527996L195.01440625,155.30343017578127L195.10667708333332,145.5981155395508L195.14912166666667,153.45935465494793L195.32535895833334,124.65238850911459L195.45915166666666,175.69987894694015L195.543118125,147.7666946411133L195.57541291666666,144.02567189534508L195.61693479166667,143.05383961995446L195.68613791666667,139.01614786783855L195.80885812500003,171.448742167155L196.53872041666668,124.37250417073568L196.92072166666665,127.66327819824221L197.44205187499998,156.2401545206706L197.5334,122.34505615234377L197.555545,135.66984456380212L197.59614416666668,121.56540832519534L197.6551975,156.04461313883465L197.83697104166666,162.18836110432946L197.97168645833332,166.81071879069015L198.41458645833333,188.14067484537765L198.57882854166667,141.5151051839193L198.98758833333335,155.70444386800133L199.091854375,136.30192718505862L199.529218125,143.87097320556643L199.54121333333333,178.63313954671227L199.728523125,161.95239664713546L199.85954770833334,150.84458312988284L199.922291875,163.49308929443362L200.03763041666667,150.25236409505212L200.09207020833333,163.5252599080404L200.30060229166668,140.88623962402346L200.55250166666664,172.38015136718752L200.61801395833334,150.29292704264324L200.80440104166667,168.87327473958337L201.69204645833332,126.93286539713542L201.89873312499998,185.99321645100918L202.04267562500002,162.53608347574874L202.21614479166666,147.09712626139324L202.33332875000002,198.39834493001308L202.34809208333334,144.67761637369793L202.78084229166666,134.12579498291018L202.88326291666667,157.92827250162765L203.04842770833332,173.94965769449874L203.25326895833334,97.06007283528645L203.58083041666669,167.06109008789065L203.90193291666665,102.85148264567057L204.04679812499998,121.6156224568685L204.37435958333336,135.64005177815758L204.41864958333332,153.81183268229168L204.473089375,190.83125712076827L204.48323916666666,154.57903188069665L204.62718166666667,156.75838114420574L204.65855375,153.42452646891277L204.661321875,141.0559046427409L204.74713375,164.82089640299483L205.47884145833333,105.53563079833984L205.49360479166666,147.6154927571615L206.94133416666665,191.78070983886724L207.39992020833336,120.57888946533205L207.70718208333332,137.54273376464846L207.80129833333334,154.26529846191409L207.88711020833333,143.58157755533855L208.27741583333335,120.13563435872396L208.57637333333335,167.33258209228518L208.5929820833333,133.73247426350915L208.65572625000001,152.45129547119143L209.19643333333335,179.41614430745446L209.33760770833334,166.7500142415365L209.74452208333335,165.22204996744796L209.94382708333333,140.9532384236654L210.21971687500002,150.58512013753258L210.52605604166666,135.72173716227215L210.57865041666668,155.69912872314455L210.61371333333335,112.92605997721354L210.64416270833334,159.49861806233727L210.70782958333334,160.9078308105469L210.87760791666665,141.85107828776043L211.19963312500002,130.2239191691081L211.43307833333333,123.40864461263021L212.245984375,171.34817403157558L212.28104729166665,187.24045715332036L212.44067583333333,168.31546427408858L212.7866914583333,137.02954254150393L212.85220375,198.01439565022793L213.05704500000002,158.4842646280925L213.73800375000002,118.68823649088542L213.857033125,198.5082845052084L213.93546333333333,181.12300516764327L214.09878270833335,120.00443420410159L214.39497208333336,134.69563446044924L214.621035625,137.80499420166018L214.7050020833333,177.30910898844405L214.77881875,125.77486317952474L214.96520583333333,137.85996398925784L215.11283916666665,194.09069976806646L215.56496625,143.84859364827477L215.64247375000002,120.86758575439455L215.66554145833334,99.99920806884765L216.259765625,107.27620086669924L216.47937020833334,153.0288279215495L216.5485733333333,181.68906809488936L216.81431333333333,152.4215026855469L216.990550625,144.08106129964196L217.0080820833333,171.31278635660811L217.02653625000002,145.9147862752279L217.11603895833332,138.43022308349612L217.34210249999998,154.30767974853518L217.37901083333333,149.06722666422527L217.61522416666668,146.33370361328127L218.45673416666668,157.3117156982422L218.61451729166666,161.34661000569665L218.81659041666666,119.23359832763674L218.92085645833333,145.05918782552087L219.08140770833336,130.98244628906252L219.30931666666666,157.50264129638674L219.72269,154.82702534993493L219.85371458333333,181.7848805745443L219.89615916666668,115.91946563720705L220.30768708333332,99.94717559814453L220.47192916666665,149.56587117513024L220.53005979166667,172.13901163736983L220.6241760416667,178.7885375976563L220.68138395833333,179.19514617919927L220.74874166666666,170.05351664225265L221.192564375,154.35733439127605L221.23316354166667,154.17913716634118L221.32451166666667,200.5625879923503L221.39925104166664,184.08843638102218L221.41309166666665,130.06152750651043L221.513666875,122.79852193196615L221.54596166666667,158.95815175374352L221.93349916666668,128.48404846191409L222.24445187499998,142.83605855305993L222.66705229166666,185.32224934895837L222.72979645833334,133.41888071695965L222.79069520833335,176.08550669352218L222.85713020833333,130.36784769694012L222.91064729166666,144.9984832763672L223.06566229166665,132.38242746988934L223.28249875,167.06122996012374L223.64235499999998,172.14712422688808L223.64696854166667,187.9566029866537L223.98375708333333,160.25029144287112L224.182139375,174.38591918945315L224.348226875,117.14600524902346L224.42112083333333,155.75339914957684L224.93876020833335,178.07854614257818L224.99596812500002,145.5052403767904L225.15282854166665,110.97889862060549L225.23587229166668,160.5276580810547L225.31983875,153.3190628051758L225.61418270833335,169.1551172892253L225.80426062499998,166.04715627034508L226.15765791666666,130.30070902506512L226.51566875,158.88318023681643L226.59225354166665,173.69299214680996L226.79617208333335,147.8729975382487L226.82569875000002,165.01350046793624L227.11727458333334,168.14202270507815L227.25937166666665,153.43515675862633L227.46974916666665,164.04964090983077L227.88773604166667,131.70334777832034L227.974470625,166.59153900146487L227.97816145833335,126.96097971598307L228.05382354166667,189.522472635905L228.82797583333334,203.89504394531255L229.37883270833333,124.79323984781901L229.41758645833332,146.601698811849L229.44342229166668,137.14116058349612L229.66118145833332,105.56444447835285L230.08839541666666,119.58607635498049L230.094854375,161.48844045003258L230.29323666666664,192.82443644205733L230.33014500000002,130.83921712239587L231.44293125,132.4042475382487L232.09805416666669,142.0779510498047L232.591703125,127.19051005045573L232.968168125,190.80454152425136L233.09273375,155.39854329427087L233.61683208333332,121.26524251302084L233.687880625,150.46720784505212L234.04127791666667,185.5720611572266L234.20090645833332,118.39044850667318L234.73054104166667,145.9984298706055L234.86802458333332,187.35836944580083L235.04795270833333,99.42615152994792L235.38012770833333,97.41912485758463L236.168120625,144.53592580159508L236.21333333333334,177.6264790852865L236.68760541666666,129.91648000081383L236.78633520833333,187.17709503173833L236.854615625,82.3011744181315L237.103746875,122.3165222167969L237.153573125,154.86772816975915L237.37963666666667,189.91117757161464L237.726575,125.24418792724612L237.90927125,156.8459411621094L238.02645520833335,140.76427103678387L238.97038583333335,192.10381469726568L239.15308208333335,167.5748407999675L239.24535291666666,162.63609212239587L239.2721114583333,127.03958791097006L239.321015,115.14667154947917L239.40405875,131.764052327474L239.71593416666667,132.13849029541018L239.85987666666665,147.75928141276043L239.93092520833332,163.25586598714196L240.3083129166667,114.841330464681L240.42457416666667,137.92038879394534L240.45594624999998,146.14991149902346L240.8379475,160.7280949910482L240.8444064583333,137.48132985432946L241.11106916666665,135.80594024658205L241.29745625,166.54845835367843L241.37496375,164.26854095458987L241.68130291666668,161.37024841308596L241.77265104166665,146.43287302652996L241.79387333333332,96.10600433349609L242.689823125,121.5887669881185L242.92050020833335,120.09786885579427L243.26005687499998,148.70034179687502L243.431680625,166.60007120768233L243.53686937499998,195.49809417724614L243.686348125,120.0083506266276L243.71772020833333,133.2915969848633L243.99914625,125.3376225789388L244.59521583333333,176.3023086547852L244.68195041666667,104.7611582438151L244.70317270833334,125.7338806152344L244.97444895833334,163.98935597737633L245.11285520833331,143.21021677652996L246.39449708333333,155.8141036987305L246.81156124999998,166.0249165852865L246.938895,196.60308481852218L246.95089020833333,125.88885904947917L246.97857145833333,152.81734110514324L247.116055,138.1948181152344L247.29967395833333,150.78261973063152L247.48790645833333,160.37967325846358L248.08674416666665,127.14211425781252L248.27959020833333,169.11133728027346L249.04820625000002,212.14750569661464L249.12571375,148.7469192504883L249.200453125,149.7472854614258L249.32501875,119.53921915690104L249.53170541666665,162.02652893066409L250.59651083333333,152.54864654541018L250.81519270833334,152.8972081502279L250.949908125,135.6487238566081L251.25717,159.17299550374352L251.39557625,144.3146479288737L251.514605625,161.3783610026042L251.95750562499998,151.677382405599L252.11713416666666,128.8938741048177L252.37918333333332,138.46323293050133L252.38471958333332,153.6893046061198L252.38564229166667,112.29327799479167L252.43177770833333,169.53640899658205L252.56464770833333,106.56397145589192L252.765798125,134.2388117472331L252.81470166666668,166.99045461018883L253.06198750000001,188.8092641194662L253.57132249999998,145.26717783610027L253.76324583333331,125.99194488525393L253.94225125,127.40661265055338L254.52909375,130.11314036051434L254.64627770833332,137.9138147989909L254.97660729166668,164.71850992838546L255.043965,149.64825592041018L255.1980572916667,105.89230499267578L255.722155625,125.21383565266927L255.78120895833334,146.7266047159831L255.88362958333332,141.54098154703777L256.04325812499997,106.70873921712239L256.6273325,153.27891947428387L257.04993291666665,123.61341756184896L257.11175437500003,139.81929423014324L257.14220375,117.79725036621096L257.2473925,154.5146906534831L257.47899229166666,123.22009684244792L257.5980216666667,135.99225006103518L257.64323437499996,136.122331237793L257.9135879166667,170.15898030598962L258.0160085416667,169.25834299723311L258.08797979166667,157.23184865315758L258.108279375,143.48856252034508L258.324193125,153.56244049072268L258.45890854166663,169.21204528808596L258.634223125,166.49055124918624L258.6988127083333,158.5203516642253L258.91934,159.64226684570315L258.97101166666664,155.00704091389977L259.481269375,140.80819091796877L260.01644020833334,139.81048227945965L260.0634983333333,175.2250127156576" style="fill: none;" fill="none"></path></g></g></g></g></g></g><g transform="translate(53, 176)" clip-path="url(#clip_1)"><clipPath id="clip_1"><rect width="276" height="23"></rect></clipPath><g><g><line x1="0" y1="0" x2="0" y2="5" style="visibility: inherit;" fill="rgb(0, 0, 0)" stroke="rgb(204, 204, 204)" stroke-width="1px"></line><line x1="18.454166666666666" y1="0" x2="18.454166666666666" y2="5" style="visibility: inherit;" fill="rgb(0, 0, 0)" stroke="rgb(204, 204, 204)" stroke-width="1px"></line><line x1="36.90833333333333" y1="0" x2="36.90833333333333" y2="5" style="visibility: inherit;" fill="rgb(0, 0, 0)" stroke="rgb(204, 204, 204)" stroke-width="1px"></line><line x1="55.362500000000004" y1="0" x2="55.362500000000004" y2="5" style="visibility: inherit;" fill="rgb(0, 0, 0)" stroke="rgb(204, 204, 204)" stroke-width="1px"></line><line x1="73.81666666666666" y1="0" x2="73.81666666666666" y2="5" style="visibility: inherit;" fill="rgb(0, 0, 0)" stroke="rgb(204, 204, 204)" stroke-width="1px"></line><line x1="92.27083333333333" y1="0" x2="92.27083333333333" y2="5" style="visibility: inherit;" fill="rgb(0, 0, 0)" stroke="rgb(204, 204, 204)" stroke-width="1px"></line><line x1="110.72500000000001" y1="0" x2="110.72500000000001" y2="5" style="visibility: inherit;" fill="rgb(0, 0, 0)" stroke="rgb(204, 204, 204)" stroke-width="1px"></line><line x1="129.17916666666667" y1="0" x2="129.17916666666667" y2="5" style="visibility: inherit;" fill="rgb(0, 0, 0)" stroke="rgb(204, 204, 204)" stroke-width="1px"></line><line x1="147.63333333333333" y1="0" x2="147.63333333333333" y2="5" style="visibility: inherit;" fill="rgb(0, 0, 0)" stroke="rgb(204, 204, 204)" stroke-width="1px"></line><line x1="166.0875" y1="0" x2="166.0875" y2="5" style="visibility: inherit;" fill="rgb(0, 0, 0)" stroke="rgb(204, 204, 204)" stroke-width="1px"></line><line x1="184.54166666666666" y1="0" x2="184.54166666666666" y2="5" style="visibility: inherit;" fill="rgb(0, 0, 0)" stroke="rgb(204, 204, 204)" stroke-width="1px"></line><line x1="202.9958333333333" y1="0" x2="202.9958333333333" y2="5" style="visibility: inherit;" fill="rgb(0, 0, 0)" stroke="rgb(204, 204, 204)" stroke-width="1px"></line><line x1="221.45000000000002" y1="0" x2="221.45000000000002" y2="5" style="visibility: inherit;" fill="rgb(0, 0, 0)" stroke="rgb(204, 204, 204)" stroke-width="1px"></line><line x1="239.90416666666667" y1="0" x2="239.90416666666667" y2="5" style="visibility: inherit;" fill="rgb(0, 0, 0)" stroke="rgb(204, 204, 204)" stroke-width="1px"></line><line x1="258.35833333333335" y1="0" x2="258.35833333333335" y2="5" style="visibility: inherit;" fill="rgb(0, 0, 0)" stroke="rgb(204, 204, 204)" stroke-width="1px"></line><line x1="276.8125" y1="0" x2="276.8125" y2="5" style="visibility: inherit;" fill="rgb(0, 0, 0)" stroke="rgb(204, 204, 204)" stroke-width="1px"></line></g><g transform="translate(0, 8)"><text x="0" y="0" dx="0em" dy="0.95em" style="text-anchor: middle; visibility: hidden; font-family: Roboto, sans-serif; font-size: 12px; font-weight: 200;" fill="rgb(33, 33, 33)" stroke="none" stroke-width="1px">-20k</text><text x="18.454166666666666" y="0" dx="0em" dy="0.95em" style="text-anchor: middle; visibility: inherit; font-family: Roboto, sans-serif; font-size: 12px; font-weight: 200;" fill="rgb(33, 33, 33)" stroke="none" stroke-width="1px">0</text><text x="36.90833333333333" y="0" dx="0em" dy="0.95em" style="text-anchor: middle; visibility: hidden; font-family: Roboto, sans-serif; font-size: 12px; font-weight: 200;" fill="rgb(33, 33, 33)" stroke="none" stroke-width="1px">20k</text><text x="55.362500000000004" y="0" dx="0em" dy="0.95em" style="text-anchor: middle; visibility: inherit; font-family: Roboto, sans-serif; font-size: 12px; font-weight: 200;" fill="rgb(33, 33, 33)" stroke="none" stroke-width="1px">40k</text><text x="73.81666666666666" y="0" dx="0em" dy="0.95em" style="text-anchor: middle; visibility: hidden; font-family: Roboto, sans-serif; font-size: 12px; font-weight: 200;" fill="rgb(33, 33, 33)" stroke="none" stroke-width="1px">60k</text><text x="92.27083333333333" y="0" dx="0em" dy="0.95em" style="text-anchor: middle; visibility: inherit; font-family: Roboto, sans-serif; font-size: 12px; font-weight: 200;" fill="rgb(33, 33, 33)" stroke="none" stroke-width="1px">80k</text><text x="110.72500000000001" y="0" dx="0em" dy="0.95em" style="text-anchor: middle; visibility: hidden; font-family: Roboto, sans-serif; font-size: 12px; font-weight: 200;" fill="rgb(33, 33, 33)" stroke="none" stroke-width="1px">100k</text><text x="129.17916666666667" y="0" dx="0em" dy="0.95em" style="text-anchor: middle; visibility: inherit; font-family: Roboto, sans-serif; font-size: 12px; font-weight: 200;" fill="rgb(33, 33, 33)" stroke="none" stroke-width="1px">120k</text><text x="147.63333333333333" y="0" dx="0em" dy="0.95em" style="text-anchor: middle; visibility: hidden; font-family: Roboto, sans-serif; font-size: 12px; font-weight: 200;" fill="rgb(33, 33, 33)" stroke="none" stroke-width="1px">140k</text><text x="166.0875" y="0" dx="0em" dy="0.95em" style="text-anchor: middle; visibility: inherit; font-family: Roboto, sans-serif; font-size: 12px; font-weight: 200;" fill="rgb(33, 33, 33)" stroke="none" stroke-width="1px">160k</text><text x="184.54166666666666" y="0" dx="0em" dy="0.95em" style="text-anchor: middle; visibility: hidden; font-family: Roboto, sans-serif; font-size: 12px; font-weight: 200;" fill="rgb(33, 33, 33)" stroke="none" stroke-width="1px">180k</text><text x="202.9958333333333" y="0" dx="0em" dy="0.95em" style="text-anchor: middle; visibility: inherit; font-family: Roboto, sans-serif; font-size: 12px; font-weight: 200;" fill="rgb(33, 33, 33)" stroke="none" stroke-width="1px">200k</text><text x="221.45000000000002" y="0" dx="0em" dy="0.95em" style="text-anchor: middle; visibility: hidden; font-family: Roboto, sans-serif; font-size: 12px; font-weight: 200;" fill="rgb(33, 33, 33)" stroke="none" stroke-width="1px">220k</text><text x="239.90416666666667" y="0" dx="0em" dy="0.95em" style="text-anchor: middle; visibility: inherit; font-family: Roboto, sans-serif; font-size: 12px; font-weight: 200;" fill="rgb(33, 33, 33)" stroke="none" stroke-width="1px">240k</text><text x="258.35833333333335" y="0" dx="0em" dy="0.95em" style="text-anchor: middle; visibility: hidden; font-family: Roboto, sans-serif; font-size: 12px; font-weight: 200;" fill="rgb(33, 33, 33)" stroke="none" stroke-width="1px">260k</text><text x="276.8125" y="0" dx="0em" dy="0.95em" style="text-anchor: middle; visibility: hidden; font-family: Roboto, sans-serif; font-size: 12px; font-weight: 200;" fill="rgb(33, 33, 33)" stroke="none" stroke-width="1px">280k</text></g><line x1="0" y1="0" x2="276.8125" y2="0" fill="rgb(0, 0, 0)" stroke="rgb(204, 204, 204)" stroke-width="1px"></line></g></g></g></g></svg>